<?xml version="1.0" encoding="UTF-8"?>
<svg xmlns="http://www.w3.org/2000/svg" xmlns:xlink="http://www.w3.org/1999/xlink" width="369.676pt" height="96.141pt" viewBox="0 0 369.676 96.141">
<defs>
<g>
<g id="glyph-0-0">
<path d="M 2.109375 -3.34375 C 1.773438 -3.34375 1.507812 -3.210938 1.3125 -2.953125 C 1.125 -2.691406 1.03125 -2.335938 1.03125 -1.890625 C 1.03125 -1.429688 1.125 -1.070312 1.3125 -0.8125 C 1.507812 -0.550781 1.773438 -0.421875 2.109375 -0.421875 C 2.441406 -0.421875 2.703125 -0.550781 2.890625 -0.8125 C 3.085938 -1.070312 3.1875 -1.429688 3.1875 -1.890625 C 3.1875 -2.335938 3.085938 -2.691406 2.890625 -2.953125 C 2.703125 -3.210938 2.441406 -3.34375 2.109375 -3.34375 Z M 2.109375 -3.875 C 2.648438 -3.875 3.070312 -3.695312 3.375 -3.34375 C 3.6875 -2.988281 3.84375 -2.503906 3.84375 -1.890625 C 3.84375 -1.265625 3.6875 -0.773438 3.375 -0.421875 C 3.070312 -0.078125 2.648438 0.09375 2.109375 0.09375 C 1.566406 0.09375 1.140625 -0.078125 0.828125 -0.421875 C 0.523438 -0.773438 0.375 -1.265625 0.375 -1.890625 C 0.375 -2.503906 0.523438 -2.988281 0.828125 -3.34375 C 1.140625 -3.695312 1.566406 -3.875 2.109375 -3.875 Z M 2.109375 -3.875 "/>
</g>
<g id="glyph-0-1">
<path d="M 0.203125 -3.78125 L 3.828125 -3.78125 L 3.828125 -3.28125 L 2.3125 -3.28125 L 2.3125 0 L 1.703125 0 L 1.703125 -3.28125 L 0.203125 -3.28125 Z M 0.203125 -3.78125 "/>
</g>
<g id="glyph-0-2">
<path d="M 0.625 -3.78125 L 1.25 -3.78125 L 1.25 -2 L 3 -3.78125 L 3.75 -3.78125 L 2.3125 -2.3125 L 3.9375 0 L 3.25 0 L 1.90625 -1.90625 L 1.25 -1.234375 L 1.25 0 L 0.625 0 Z M 0.625 -3.78125 "/>
</g>
<g id="glyph-0-3">
<path d="M 1.25 -0.5625 L 1.25 1.4375 L 0.625 1.4375 L 0.625 -3.78125 L 1.25 -3.78125 L 1.25 -3.203125 C 1.382812 -3.429688 1.550781 -3.597656 1.75 -3.703125 C 1.945312 -3.816406 2.179688 -3.875 2.453125 -3.875 C 2.910156 -3.875 3.28125 -3.691406 3.5625 -3.328125 C 3.851562 -2.960938 4 -2.484375 4 -1.890625 C 4 -1.296875 3.851562 -0.816406 3.5625 -0.453125 C 3.28125 -0.0859375 2.910156 0.09375 2.453125 0.09375 C 2.179688 0.09375 1.945312 0.0390625 1.75 -0.0625 C 1.550781 -0.175781 1.382812 -0.34375 1.25 -0.5625 Z M 3.359375 -1.890625 C 3.359375 -2.335938 3.265625 -2.691406 3.078125 -2.953125 C 2.890625 -3.210938 2.632812 -3.34375 2.3125 -3.34375 C 1.976562 -3.34375 1.71875 -3.210938 1.53125 -2.953125 C 1.34375 -2.691406 1.25 -2.335938 1.25 -1.890625 C 1.25 -1.429688 1.34375 -1.070312 1.53125 -0.8125 C 1.71875 -0.550781 1.976562 -0.421875 2.3125 -0.421875 C 2.632812 -0.421875 2.890625 -0.550781 3.078125 -0.8125 C 3.265625 -1.070312 3.359375 -1.429688 3.359375 -1.890625 Z M 3.359375 -1.890625 "/>
</g>
<g id="glyph-0-4">
<path d="M 4.21875 -3.78125 L 4.828125 -3.78125 L 4.828125 0 L 4.21875 0 Z M 4.53125 -3.875 Z M 3 -1.125 C 3 -1.320312 2.925781 -1.472656 2.78125 -1.578125 C 2.632812 -1.679688 2.421875 -1.734375 2.140625 -1.734375 L 1.25 -1.734375 L 1.25 -0.5 L 2.140625 -0.5 C 2.421875 -0.5 2.632812 -0.550781 2.78125 -0.65625 C 2.925781 -0.757812 3 -0.914062 3 -1.125 Z M 0.625 -3.78125 L 1.25 -3.78125 L 1.25 -2.234375 L 2.15625 -2.234375 C 2.644531 -2.234375 3.015625 -2.140625 3.265625 -1.953125 C 3.523438 -1.773438 3.65625 -1.5 3.65625 -1.125 C 3.65625 -0.738281 3.523438 -0.453125 3.265625 -0.265625 C 3.015625 -0.0859375 2.644531 0 2.15625 0 L 0.625 0 Z M 0.625 -3.78125 "/>
</g>
<g id="glyph-0-5">
<path d="M 3.859375 -3.78125 L 3.859375 0 L 3.25 0 L 3.25 -3.03125 L 1.421875 0 L 0.625 0 L 0.625 -3.78125 L 1.25 -3.78125 L 1.25 -0.75 L 3.0625 -3.78125 Z M 1.1875 -5.25 L 1.578125 -5.25 C 1.609375 -5.082031 1.675781 -4.957031 1.78125 -4.875 C 1.894531 -4.789062 2.050781 -4.75 2.25 -4.75 C 2.4375 -4.75 2.582031 -4.789062 2.6875 -4.875 C 2.800781 -4.957031 2.875 -5.082031 2.90625 -5.25 L 3.296875 -5.25 C 3.273438 -4.925781 3.175781 -4.679688 3 -4.515625 C 2.820312 -4.359375 2.570312 -4.28125 2.25 -4.28125 C 1.914062 -4.28125 1.660156 -4.359375 1.484375 -4.515625 C 1.304688 -4.679688 1.207031 -4.925781 1.1875 -5.25 Z M 1.1875 -5.25 "/>
</g>
<g id="glyph-0-6">
<path d="M 0.734375 -0.859375 L 1.453125 -0.859375 L 1.453125 0 L 0.734375 0 Z M 0.734375 -0.859375 "/>
</g>
<g id="glyph-0-7">
<path d="M 3.46875 -0.5 L 5.0625 -0.5 L 5.0625 -3.78125 L 5.6875 -3.78125 L 5.6875 0 L 0.625 0 L 0.625 -3.78125 L 1.25 -3.78125 L 1.25 -0.5 L 2.84375 -0.5 L 2.84375 -3.78125 L 3.46875 -3.78125 Z M 3.46875 -0.5 "/>
</g>
<g id="glyph-0-8">
<path d="M 3.859375 -3.78125 L 3.859375 0 L 3.25 0 L 3.25 -3.03125 L 1.421875 0 L 0.625 0 L 0.625 -3.78125 L 1.25 -3.78125 L 1.25 -0.75 L 3.0625 -3.78125 Z M 3.859375 -3.78125 "/>
</g>
<g id="glyph-0-9">
<path d="M 1.015625 -1.890625 C 1.015625 -1.359375 1.097656 -0.976562 1.265625 -0.75 C 1.429688 -0.53125 1.648438 -0.421875 1.921875 -0.421875 C 2.140625 -0.421875 2.378906 -0.609375 2.640625 -0.984375 L 2.640625 -2.78125 C 2.378906 -3.15625 2.140625 -3.34375 1.921875 -3.34375 C 1.648438 -3.34375 1.429688 -3.226562 1.265625 -3 C 1.097656 -2.78125 1.015625 -2.410156 1.015625 -1.890625 Z M 2.640625 1.4375 L 2.640625 -0.484375 C 2.515625 -0.273438 2.375 -0.125 2.21875 -0.03125 C 2.070312 0.0507812 1.910156 0.09375 1.734375 0.09375 C 1.347656 0.09375 1.023438 -0.078125 0.765625 -0.421875 C 0.503906 -0.765625 0.375 -1.25 0.375 -1.875 C 0.375 -2.488281 0.503906 -2.972656 0.765625 -3.328125 C 1.023438 -3.691406 1.347656 -3.875 1.734375 -3.875 C 1.910156 -3.875 2.070312 -3.828125 2.21875 -3.734375 C 2.375 -3.648438 2.515625 -3.503906 2.640625 -3.296875 L 2.640625 -5.03125 L 3.265625 -5.03125 L 3.265625 -3.296875 C 3.390625 -3.503906 3.523438 -3.648438 3.671875 -3.734375 C 3.816406 -3.828125 3.984375 -3.875 4.171875 -3.875 C 4.546875 -3.875 4.863281 -3.691406 5.125 -3.328125 C 5.394531 -2.972656 5.53125 -2.488281 5.53125 -1.875 C 5.53125 -1.25 5.394531 -0.765625 5.125 -0.421875 C 4.863281 -0.078125 4.546875 0.09375 4.171875 0.09375 C 3.984375 0.09375 3.816406 0.0507812 3.671875 -0.03125 C 3.523438 -0.125 3.390625 -0.273438 3.265625 -0.484375 L 3.265625 1.4375 Z M 4.890625 -1.890625 C 4.890625 -2.410156 4.804688 -2.78125 4.640625 -3 C 4.472656 -3.226562 4.253906 -3.34375 3.984375 -3.34375 C 3.765625 -3.34375 3.523438 -3.15625 3.265625 -2.78125 L 3.265625 -0.984375 C 3.523438 -0.609375 3.765625 -0.421875 3.984375 -0.421875 C 4.253906 -0.421875 4.472656 -0.53125 4.640625 -0.75 C 4.804688 -0.976562 4.890625 -1.359375 4.890625 -1.890625 Z M 4.890625 -1.890625 "/>
</g>
<g id="glyph-0-10">
<path d="M 2.375 -1.90625 C 1.863281 -1.90625 1.507812 -1.84375 1.3125 -1.71875 C 1.125 -1.601562 1.03125 -1.410156 1.03125 -1.140625 C 1.03125 -0.921875 1.101562 -0.742188 1.25 -0.609375 C 1.394531 -0.484375 1.59375 -0.421875 1.84375 -0.421875 C 2.1875 -0.421875 2.460938 -0.539062 2.671875 -0.78125 C 2.878906 -1.03125 2.984375 -1.359375 2.984375 -1.765625 L 2.984375 -1.90625 Z M 3.609375 -2.15625 L 3.609375 0 L 2.984375 0 L 2.984375 -0.578125 C 2.835938 -0.347656 2.660156 -0.175781 2.453125 -0.0625 C 2.242188 0.0390625 1.984375 0.09375 1.671875 0.09375 C 1.285156 0.09375 0.976562 -0.0078125 0.75 -0.21875 C 0.53125 -0.4375 0.421875 -0.726562 0.421875 -1.09375 C 0.421875 -1.519531 0.5625 -1.84375 0.84375 -2.0625 C 1.125 -2.28125 1.546875 -2.390625 2.109375 -2.390625 L 2.984375 -2.390625 L 2.984375 -2.4375 C 2.984375 -2.726562 2.890625 -2.953125 2.703125 -3.109375 C 2.515625 -3.265625 2.25 -3.34375 1.90625 -3.34375 C 1.695312 -3.34375 1.488281 -3.316406 1.28125 -3.265625 C 1.070312 -3.210938 0.875 -3.132812 0.6875 -3.03125 L 0.6875 -3.609375 C 0.914062 -3.691406 1.132812 -3.753906 1.34375 -3.796875 C 1.5625 -3.847656 1.769531 -3.875 1.96875 -3.875 C 2.519531 -3.875 2.929688 -3.726562 3.203125 -3.4375 C 3.472656 -3.15625 3.609375 -2.726562 3.609375 -2.15625 Z M 3.609375 -2.15625 "/>
</g>
<g id="glyph-0-11">
<path d="M 2.796875 -3.78125 L 3.421875 -3.78125 L 3.421875 -2 L 5.0625 -3.78125 L 5.796875 -3.78125 L 4.4375 -2.328125 L 5.984375 0 L 5.328125 0 L 4.046875 -1.90625 L 3.421875 -1.234375 L 3.421875 0 L 2.796875 0 L 2.796875 -1.234375 L 2.171875 -1.90625 L 0.90625 0 L 0.234375 0 L 1.78125 -2.328125 L 0.4375 -3.78125 L 1.15625 -3.78125 L 2.796875 -2 Z M 2.796875 -3.78125 "/>
</g>
<g id="glyph-0-12">
<path d="M 1.5 -0.5 L 3.296875 -0.5 L 3.296875 -3.28125 L 1.984375 -3.28125 L 1.984375 -2.8125 C 1.984375 -1.882812 1.851562 -1.171875 1.59375 -0.671875 Z M 0.59375 -0.5 C 0.800781 -0.582031 0.945312 -0.722656 1.03125 -0.921875 C 1.25 -1.390625 1.359375 -2.101562 1.359375 -3.0625 L 1.359375 -3.78125 L 3.921875 -3.78125 L 3.921875 -0.5 L 4.421875 -0.5 L 4.421875 0.953125 L 3.921875 0.953125 L 3.921875 0 L 0.859375 0 L 0.859375 0.953125 L 0.359375 0.953125 L 0.359375 -0.5 Z M 0.59375 -0.5 "/>
</g>
<g id="glyph-0-13">
<path d="M 1.28125 -2.6875 C 1.28125 -2.5 1.347656 -2.351562 1.484375 -2.25 C 1.628906 -2.144531 1.835938 -2.09375 2.109375 -2.09375 L 2.9375 -2.09375 L 2.9375 -3.28125 L 2.109375 -3.28125 C 1.835938 -3.28125 1.628906 -3.226562 1.484375 -3.125 C 1.347656 -3.019531 1.28125 -2.875 1.28125 -2.6875 Z M 0.390625 0 L 1.546875 -1.65625 C 1.285156 -1.71875 1.066406 -1.820312 0.890625 -1.96875 C 0.722656 -2.125 0.640625 -2.363281 0.640625 -2.6875 C 0.640625 -3.050781 0.757812 -3.320312 1 -3.5 C 1.238281 -3.6875 1.601562 -3.78125 2.09375 -3.78125 L 3.5625 -3.78125 L 3.5625 0 L 2.9375 0 L 2.9375 -1.59375 L 2.171875 -1.59375 L 1.0625 0 Z M 0.390625 0 "/>
</g>
<g id="glyph-0-14">
<path d="M 2.140625 -3.875 C 2.679688 -3.875 3.101562 -3.695312 3.40625 -3.34375 C 3.71875 -2.988281 3.875 -2.503906 3.875 -1.890625 C 3.875 -1.265625 3.71875 -0.773438 3.40625 -0.421875 C 3.101562 -0.078125 2.679688 0.09375 2.140625 0.09375 C 1.597656 0.09375 1.175781 -0.0703125 0.875 -0.40625 C 0.582031 -0.75 0.429688 -1.242188 0.421875 -1.890625 L 0.390625 -2.65625 C 0.378906 -2.925781 0.375 -3.109375 0.375 -3.203125 C 0.375 -3.554688 0.441406 -3.867188 0.578125 -4.140625 C 0.773438 -4.554688 1.050781 -4.851562 1.40625 -5.03125 C 1.757812 -5.207031 2.234375 -5.296875 2.828125 -5.296875 C 3.109375 -5.304688 3.304688 -5.328125 3.421875 -5.359375 L 3.59375 -4.875 C 3.488281 -4.832031 3.382812 -4.804688 3.28125 -4.796875 L 2.4375 -4.75 C 2.15625 -4.726562 1.925781 -4.664062 1.75 -4.5625 C 1.300781 -4.300781 1.054688 -4 1.015625 -3.65625 L 1 -3.46875 C 1.289062 -3.738281 1.671875 -3.875 2.140625 -3.875 Z M 2.140625 -3.34375 C 1.816406 -3.34375 1.554688 -3.210938 1.359375 -2.953125 C 1.160156 -2.691406 1.0625 -2.335938 1.0625 -1.890625 C 1.0625 -1.429688 1.15625 -1.070312 1.34375 -0.8125 C 1.539062 -0.550781 1.804688 -0.421875 2.140625 -0.421875 C 2.472656 -0.421875 2.734375 -0.550781 2.921875 -0.8125 C 3.117188 -1.070312 3.21875 -1.429688 3.21875 -1.890625 C 3.21875 -2.335938 3.117188 -2.691406 2.921875 -2.953125 C 2.734375 -3.210938 2.472656 -3.34375 2.140625 -3.34375 Z M 2.140625 -3.34375 "/>
</g>
<g id="glyph-0-15">
<path d="M 2.21875 0.34375 C 2.039062 0.800781 1.867188 1.097656 1.703125 1.234375 C 1.535156 1.367188 1.316406 1.4375 1.046875 1.4375 L 0.546875 1.4375 L 0.546875 0.921875 L 0.90625 0.921875 C 1.082031 0.921875 1.21875 0.878906 1.3125 0.796875 C 1.40625 0.710938 1.507812 0.519531 1.625 0.21875 L 1.734375 -0.0625 L 0.203125 -3.78125 L 0.859375 -3.78125 L 2.046875 -0.828125 L 3.21875 -3.78125 L 3.875 -3.78125 Z M 2.21875 0.34375 "/>
</g>
<g id="glyph-0-16">
<path d="M 1.25 -1.734375 L 1.25 -0.5 L 2.125 -0.5 C 2.414062 -0.5 2.632812 -0.550781 2.78125 -0.65625 C 2.925781 -0.757812 3 -0.914062 3 -1.125 C 3 -1.320312 2.925781 -1.472656 2.78125 -1.578125 C 2.632812 -1.679688 2.414062 -1.734375 2.125 -1.734375 Z M 1.25 -3.28125 L 1.25 -2.234375 L 2.0625 -2.234375 C 2.300781 -2.234375 2.492188 -2.28125 2.640625 -2.375 C 2.785156 -2.46875 2.859375 -2.597656 2.859375 -2.765625 C 2.859375 -2.929688 2.785156 -3.054688 2.640625 -3.140625 C 2.492188 -3.234375 2.300781 -3.28125 2.0625 -3.28125 Z M 0.625 -3.78125 L 2.109375 -3.78125 C 2.546875 -3.78125 2.882812 -3.695312 3.125 -3.53125 C 3.363281 -3.375 3.484375 -3.144531 3.484375 -2.84375 C 3.484375 -2.613281 3.421875 -2.429688 3.296875 -2.296875 C 3.179688 -2.160156 3.003906 -2.070312 2.765625 -2.03125 C 3.046875 -1.976562 3.265625 -1.863281 3.421875 -1.6875 C 3.578125 -1.519531 3.65625 -1.3125 3.65625 -1.0625 C 3.65625 -0.71875 3.523438 -0.453125 3.265625 -0.265625 C 3.015625 -0.0859375 2.644531 0 2.15625 0 L 0.625 0 Z M 0.625 -3.78125 "/>
</g>
<g id="glyph-0-17">
<path d="M 3.375 -3.625 L 3.375 -3.046875 C 3.195312 -3.148438 3.019531 -3.222656 2.84375 -3.265625 C 2.664062 -3.316406 2.488281 -3.34375 2.3125 -3.34375 C 1.90625 -3.34375 1.585938 -3.210938 1.359375 -2.953125 C 1.140625 -2.703125 1.03125 -2.347656 1.03125 -1.890625 C 1.03125 -1.421875 1.140625 -1.054688 1.359375 -0.796875 C 1.585938 -0.546875 1.90625 -0.421875 2.3125 -0.421875 C 2.488281 -0.421875 2.664062 -0.445312 2.84375 -0.5 C 3.019531 -0.550781 3.195312 -0.625 3.375 -0.71875 L 3.375 -0.140625 C 3.195312 -0.0664062 3.015625 -0.0078125 2.828125 0.03125 C 2.640625 0.0703125 2.441406 0.09375 2.234375 0.09375 C 1.671875 0.09375 1.21875 -0.0820312 0.875 -0.4375 C 0.539062 -0.789062 0.375 -1.273438 0.375 -1.890625 C 0.375 -2.503906 0.539062 -2.988281 0.875 -3.34375 C 1.21875 -3.695312 1.6875 -3.875 2.28125 -3.875 C 2.46875 -3.875 2.648438 -3.851562 2.828125 -3.8125 C 3.015625 -3.769531 3.195312 -3.707031 3.375 -3.625 Z M 3.375 -3.625 "/>
</g>
<g id="glyph-0-18">
<path d="M 0.625 0 L 0.625 -3.78125 L 3.296875 -3.78125 L 3.296875 -3.28125 L 1.25 -3.28125 L 1.25 0 Z M 0.625 0 "/>
</g>
<g id="glyph-0-19">
<path d="M 3.875 -2.046875 L 3.875 -1.734375 L 1.03125 -1.734375 C 1.050781 -1.304688 1.175781 -0.976562 1.40625 -0.75 C 1.644531 -0.53125 1.96875 -0.421875 2.375 -0.421875 C 2.613281 -0.421875 2.84375 -0.453125 3.0625 -0.515625 C 3.289062 -0.578125 3.515625 -0.664062 3.734375 -0.78125 L 3.734375 -0.1875 C 3.515625 -0.09375 3.285156 -0.0234375 3.046875 0.015625 C 2.816406 0.0664062 2.582031 0.09375 2.34375 0.09375 C 1.738281 0.09375 1.257812 -0.078125 0.90625 -0.421875 C 0.550781 -0.773438 0.375 -1.25 0.375 -1.84375 C 0.375 -2.46875 0.539062 -2.960938 0.875 -3.328125 C 1.207031 -3.691406 1.660156 -3.875 2.234375 -3.875 C 2.742188 -3.875 3.144531 -3.707031 3.4375 -3.375 C 3.726562 -3.050781 3.875 -2.609375 3.875 -2.046875 Z M 3.265625 -2.21875 C 3.253906 -2.5625 3.15625 -2.832031 2.96875 -3.03125 C 2.789062 -3.238281 2.546875 -3.34375 2.234375 -3.34375 C 1.890625 -3.34375 1.613281 -3.242188 1.40625 -3.046875 C 1.195312 -2.847656 1.078125 -2.570312 1.046875 -2.21875 Z M 3.265625 -2.21875 "/>
</g>
<g id="glyph-0-20">
<path d="M 0.625 -3.78125 L 1.25 -3.78125 L 1.25 -2.234375 L 3.265625 -2.234375 L 3.265625 -3.78125 L 3.890625 -3.78125 L 3.890625 0 L 3.265625 0 L 3.265625 -1.734375 L 1.25 -1.734375 L 1.25 0 L 0.625 0 Z M 0.625 -3.78125 "/>
</g>
<g id="glyph-0-21">
<path d="M 2.796875 -2.71875 C 3.128906 -2.644531 3.382812 -2.5 3.5625 -2.28125 C 3.75 -2.0625 3.84375 -1.789062 3.84375 -1.46875 C 3.84375 -0.96875 3.671875 -0.582031 3.328125 -0.3125 C 2.984375 -0.0390625 2.5 0.09375 1.875 0.09375 C 1.65625 0.09375 1.4375 0.0703125 1.21875 0.03125 C 1 -0.0078125 0.769531 -0.0703125 0.53125 -0.15625 L 0.53125 -0.8125 C 0.71875 -0.695312 0.921875 -0.609375 1.140625 -0.546875 C 1.367188 -0.492188 1.601562 -0.46875 1.84375 -0.46875 C 2.269531 -0.46875 2.59375 -0.550781 2.8125 -0.71875 C 3.039062 -0.894531 3.15625 -1.144531 3.15625 -1.46875 C 3.15625 -1.757812 3.050781 -1.988281 2.84375 -2.15625 C 2.644531 -2.320312 2.359375 -2.40625 1.984375 -2.40625 L 1.390625 -2.40625 L 1.390625 -2.96875 L 2.015625 -2.96875 C 2.347656 -2.96875 2.601562 -3.035156 2.78125 -3.171875 C 2.957031 -3.304688 3.046875 -3.5 3.046875 -3.75 C 3.046875 -4.007812 2.953125 -4.207031 2.765625 -4.34375 C 2.585938 -4.476562 2.328125 -4.546875 1.984375 -4.546875 C 1.796875 -4.546875 1.59375 -4.523438 1.375 -4.484375 C 1.164062 -4.453125 0.929688 -4.390625 0.671875 -4.296875 L 0.671875 -4.90625 C 0.929688 -4.976562 1.175781 -5.03125 1.40625 -5.0625 C 1.632812 -5.101562 1.847656 -5.125 2.046875 -5.125 C 2.554688 -5.125 2.960938 -5.003906 3.265625 -4.765625 C 3.566406 -4.535156 3.71875 -4.222656 3.71875 -3.828125 C 3.71875 -3.546875 3.640625 -3.304688 3.484375 -3.109375 C 3.328125 -2.921875 3.097656 -2.789062 2.796875 -2.71875 Z M 2.796875 -2.71875 "/>
</g>
<g id="glyph-0-22">
<path d="M 3.890625 -3.78125 L 3.890625 0 L 3.265625 0 L 3.265625 -3.28125 L 1.25 -3.28125 L 1.25 0 L 0.625 0 L 0.625 -3.78125 Z M 3.890625 -3.78125 "/>
</g>
<g id="glyph-0-23">
<path d="M 2.375 -2.03125 C 2.65625 -1.976562 2.875 -1.867188 3.03125 -1.703125 C 3.1875 -1.546875 3.265625 -1.34375 3.265625 -1.09375 C 3.265625 -0.707031 3.117188 -0.410156 2.828125 -0.203125 C 2.535156 -0.00390625 2.125 0.09375 1.59375 0.09375 C 1.414062 0.09375 1.226562 0.078125 1.03125 0.046875 C 0.84375 0.015625 0.648438 -0.03125 0.453125 -0.09375 L 0.453125 -0.671875 C 0.609375 -0.585938 0.78125 -0.523438 0.96875 -0.484375 C 1.164062 -0.441406 1.367188 -0.421875 1.578125 -0.421875 C 1.910156 -0.421875 2.171875 -0.484375 2.359375 -0.609375 C 2.554688 -0.734375 2.65625 -0.894531 2.65625 -1.09375 C 2.65625 -1.289062 2.566406 -1.445312 2.390625 -1.5625 C 2.222656 -1.6875 1.988281 -1.75 1.6875 -1.75 L 1.1875 -1.75 L 1.1875 -2.265625 L 1.703125 -2.265625 C 1.960938 -2.265625 2.171875 -2.3125 2.328125 -2.40625 C 2.484375 -2.507812 2.5625 -2.644531 2.5625 -2.8125 C 2.5625 -2.945312 2.484375 -3.066406 2.328125 -3.171875 C 2.171875 -3.273438 1.957031 -3.328125 1.6875 -3.328125 C 1.53125 -3.328125 1.359375 -3.3125 1.171875 -3.28125 C 0.992188 -3.257812 0.796875 -3.210938 0.578125 -3.140625 L 0.578125 -3.703125 C 0.796875 -3.765625 1 -3.804688 1.1875 -3.828125 C 1.382812 -3.859375 1.566406 -3.875 1.734375 -3.875 C 2.171875 -3.875 2.515625 -3.785156 2.765625 -3.609375 C 3.023438 -3.429688 3.15625 -3.179688 3.15625 -2.859375 C 3.15625 -2.648438 3.085938 -2.472656 2.953125 -2.328125 C 2.828125 -2.191406 2.632812 -2.09375 2.375 -2.03125 Z M 2.375 -2.03125 "/>
</g>
<g id="glyph-0-24">
<path d="M 3.890625 0 L 0.625 0 L 0.625 -3.78125 L 1.25 -3.78125 L 1.25 -0.5 L 3.265625 -0.5 L 3.265625 -3.78125 L 3.890625 -3.78125 L 3.890625 -0.5 L 4.390625 -0.5 L 4.390625 0.953125 L 3.890625 0.953125 Z M 3.890625 0 "/>
</g>
<g id="glyph-0-25">
<path d="M 3.875 -2.046875 L 3.875 -1.734375 L 1.03125 -1.734375 C 1.050781 -1.304688 1.175781 -0.976562 1.40625 -0.75 C 1.644531 -0.53125 1.96875 -0.421875 2.375 -0.421875 C 2.613281 -0.421875 2.84375 -0.453125 3.0625 -0.515625 C 3.289062 -0.578125 3.515625 -0.664062 3.734375 -0.78125 L 3.734375 -0.1875 C 3.515625 -0.09375 3.285156 -0.0234375 3.046875 0.015625 C 2.816406 0.0664062 2.582031 0.09375 2.34375 0.09375 C 1.738281 0.09375 1.257812 -0.078125 0.90625 -0.421875 C 0.550781 -0.773438 0.375 -1.25 0.375 -1.84375 C 0.375 -2.46875 0.539062 -2.960938 0.875 -3.328125 C 1.207031 -3.691406 1.660156 -3.875 2.234375 -3.875 C 2.742188 -3.875 3.144531 -3.707031 3.4375 -3.375 C 3.726562 -3.050781 3.875 -2.609375 3.875 -2.046875 Z M 3.265625 -2.21875 C 3.253906 -2.5625 3.15625 -2.832031 2.96875 -3.03125 C 2.789062 -3.238281 2.546875 -3.34375 2.234375 -3.34375 C 1.890625 -3.34375 1.613281 -3.242188 1.40625 -3.046875 C 1.195312 -2.847656 1.078125 -2.570312 1.046875 -2.21875 Z M 2.546875 -5.234375 L 3.234375 -5.234375 L 3.234375 -4.546875 L 2.546875 -4.546875 Z M 1.21875 -5.234375 L 1.90625 -5.234375 L 1.90625 -4.546875 L 1.21875 -4.546875 Z M 1.21875 -5.234375 "/>
</g>
<g id="glyph-1-0">
<path d="M 3.03125 -5.625 L 1.84375 -2.390625 L 4.234375 -2.390625 Z M 2.546875 -6.484375 L 3.53125 -6.484375 L 6.015625 0 L 5.09375 0 L 4.5 -1.65625 L 1.578125 -1.65625 L 1 0 L 0.0625 0 Z M 2.546875 -6.484375 "/>
</g>
<g id="glyph-1-1">
<path d="M 1.75 -3.09375 L 1.75 -0.71875 L 3.15625 -0.71875 C 3.625 -0.71875 3.972656 -0.816406 4.203125 -1.015625 C 4.429688 -1.210938 4.546875 -1.507812 4.546875 -1.90625 C 4.546875 -2.3125 4.429688 -2.609375 4.203125 -2.796875 C 3.972656 -2.992188 3.625 -3.09375 3.15625 -3.09375 Z M 1.75 -5.765625 L 1.75 -3.8125 L 3.046875 -3.8125 C 3.472656 -3.8125 3.789062 -3.890625 4 -4.046875 C 4.207031 -4.203125 4.3125 -4.445312 4.3125 -4.78125 C 4.3125 -5.113281 4.207031 -5.359375 4 -5.515625 C 3.789062 -5.679688 3.472656 -5.765625 3.046875 -5.765625 Z M 0.875 -6.484375 L 3.109375 -6.484375 C 3.773438 -6.484375 4.289062 -6.34375 4.65625 -6.0625 C 5.019531 -5.78125 5.203125 -5.382812 5.203125 -4.875 C 5.203125 -4.476562 5.109375 -4.160156 4.921875 -3.921875 C 4.734375 -3.691406 4.460938 -3.550781 4.109375 -3.5 C 4.535156 -3.40625 4.867188 -3.207031 5.109375 -2.90625 C 5.347656 -2.613281 5.46875 -2.25 5.46875 -1.8125 C 5.46875 -1.238281 5.269531 -0.789062 4.875 -0.46875 C 4.476562 -0.15625 3.921875 0 3.203125 0 L 0.875 0 Z M 0.875 -6.484375 "/>
</g>
<g id="glyph-1-2">
<path d="M 5.71875 -5.984375 L 5.71875 -5.0625 C 5.425781 -5.332031 5.113281 -5.535156 4.78125 -5.671875 C 4.445312 -5.804688 4.09375 -5.875 3.71875 -5.875 C 2.976562 -5.875 2.410156 -5.644531 2.015625 -5.1875 C 1.617188 -4.738281 1.421875 -4.085938 1.421875 -3.234375 C 1.421875 -2.378906 1.617188 -1.722656 2.015625 -1.265625 C 2.410156 -0.816406 2.976562 -0.59375 3.71875 -0.59375 C 4.09375 -0.59375 4.445312 -0.660156 4.78125 -0.796875 C 5.113281 -0.929688 5.425781 -1.140625 5.71875 -1.421875 L 5.71875 -0.5 C 5.414062 -0.289062 5.09375 -0.132812 4.75 -0.03125 C 4.40625 0.0703125 4.039062 0.125 3.65625 0.125 C 2.675781 0.125 1.90625 -0.171875 1.34375 -0.765625 C 0.78125 -1.367188 0.5 -2.191406 0.5 -3.234375 C 0.5 -4.273438 0.78125 -5.09375 1.34375 -5.6875 C 1.90625 -6.289062 2.675781 -6.59375 3.65625 -6.59375 C 4.050781 -6.59375 4.421875 -6.539062 4.765625 -6.4375 C 5.109375 -6.34375 5.425781 -6.191406 5.71875 -5.984375 Z M 5.71875 -5.984375 "/>
</g>
<g id="glyph-1-3">
<path d="M 1.75 -5.765625 L 1.75 -0.71875 L 2.8125 -0.71875 C 3.707031 -0.71875 4.359375 -0.921875 4.765625 -1.328125 C 5.179688 -1.734375 5.390625 -2.375 5.390625 -3.25 C 5.390625 -4.113281 5.179688 -4.75 4.765625 -5.15625 C 4.359375 -5.5625 3.707031 -5.765625 2.8125 -5.765625 Z M 0.875 -6.484375 L 2.671875 -6.484375 C 3.929688 -6.484375 4.851562 -6.222656 5.4375 -5.703125 C 6.03125 -5.179688 6.328125 -4.363281 6.328125 -3.25 C 6.328125 -2.132812 6.03125 -1.3125 5.4375 -0.78125 C 4.84375 -0.257812 3.921875 0 2.671875 0 L 0.875 0 Z M 0.875 -6.484375 "/>
</g>
<g id="glyph-1-4">
<path d="M 0.875 -6.484375 L 4.96875 -6.484375 L 4.96875 -5.75 L 1.75 -5.75 L 1.75 -3.828125 L 4.84375 -3.828125 L 4.84375 -3.09375 L 1.75 -3.09375 L 1.75 -0.734375 L 5.046875 -0.734375 L 5.046875 0 L 0.875 0 Z M 0.875 -6.484375 "/>
</g>
<g id="glyph-1-5">
<path d="M 0.875 -6.484375 L 4.59375 -6.484375 L 4.59375 -5.75 L 1.75 -5.75 L 1.75 -3.828125 L 4.3125 -3.828125 L 4.3125 -3.09375 L 1.75 -3.09375 L 1.75 0 L 0.875 0 Z M 0.875 -6.484375 "/>
</g>
<g id="glyph-1-6">
<path d="M 5.296875 -0.921875 L 5.296875 -2.671875 L 3.859375 -2.671875 L 3.859375 -3.390625 L 6.15625 -3.390625 L 6.15625 -0.609375 C 5.820312 -0.367188 5.445312 -0.1875 5.03125 -0.0625 C 4.625 0.0625 4.191406 0.125 3.734375 0.125 C 2.722656 0.125 1.929688 -0.171875 1.359375 -0.765625 C 0.785156 -1.359375 0.5 -2.179688 0.5 -3.234375 C 0.5 -4.296875 0.785156 -5.117188 1.359375 -5.703125 C 1.929688 -6.296875 2.722656 -6.59375 3.734375 -6.59375 C 4.148438 -6.59375 4.550781 -6.539062 4.9375 -6.4375 C 5.320312 -6.332031 5.671875 -6.179688 5.984375 -5.984375 L 5.984375 -5.046875 C 5.660156 -5.328125 5.316406 -5.535156 4.953125 -5.671875 C 4.585938 -5.804688 4.207031 -5.875 3.8125 -5.875 C 3.019531 -5.875 2.421875 -5.648438 2.015625 -5.203125 C 1.617188 -4.765625 1.421875 -4.109375 1.421875 -3.234375 C 1.421875 -2.359375 1.617188 -1.695312 2.015625 -1.25 C 2.421875 -0.8125 3.019531 -0.59375 3.8125 -0.59375 C 4.113281 -0.59375 4.382812 -0.617188 4.625 -0.671875 C 4.875 -0.722656 5.097656 -0.804688 5.296875 -0.921875 Z M 5.296875 -0.921875 "/>
</g>
<g id="glyph-1-7">
<path d="M 0.875 -6.484375 L 1.75 -6.484375 L 1.75 -3.828125 L 4.9375 -3.828125 L 4.9375 -6.484375 L 5.8125 -6.484375 L 5.8125 0 L 4.9375 0 L 4.9375 -3.09375 L 1.75 -3.09375 L 1.75 0 L 0.875 0 Z M 0.875 -6.484375 "/>
</g>
<g id="glyph-1-8">
<path d="M 0.875 -6.484375 L 1.75 -6.484375 L 1.75 0 L 0.875 0 Z M 0.875 -6.484375 "/>
</g>
<g id="glyph-1-9">
<path d="M 0.875 -6.484375 L 1.75 -6.484375 L 1.75 -0.453125 C 1.75 0.328125 1.597656 0.894531 1.296875 1.25 C 1.003906 1.601562 0.53125 1.78125 -0.125 1.78125 L -0.453125 1.78125 L -0.453125 1.046875 L -0.1875 1.046875 C 0.195312 1.046875 0.46875 0.9375 0.625 0.71875 C 0.789062 0.5 0.875 0.109375 0.875 -0.453125 Z M 0.875 -6.484375 "/>
</g>
</g>
</defs>
<g fill="rgb(60.392761%, 60.392761%, 60.392761%)" fill-opacity="1">
<use xlink:href="#glyph-0-0" x="10.691959" y="18.011075"/>
<use xlink:href="#glyph-0-1" x="14.920777" y="18.011075"/>
<use xlink:href="#glyph-0-2" x="18.94707" y="18.011075"/>
<use xlink:href="#glyph-0-3" x="23.121974" y="18.011075"/>
<use xlink:href="#glyph-0-4" x="27.50977" y="18.011075"/>
<use xlink:href="#glyph-0-1" x="32.967557" y="18.011075"/>
<use xlink:href="#glyph-0-4" x="36.993851" y="18.011075"/>
<use xlink:href="#glyph-0-5" x="42.451639" y="18.011075"/>
</g>
<path fill-rule="nonzero" fill="rgb(22.744751%, 23.922729%, 26.667786%)" fill-opacity="1" stroke-width="0.69739" stroke-linecap="butt" stroke-linejoin="miter" stroke="rgb(86.274719%, 86.66687%, 87.057495%)" stroke-opacity="1" stroke-miterlimit="10" d="M -9.923269 -9.921246 L 9.920429 -9.921246 L 9.920429 9.922452 L -9.923269 9.922452 Z M -9.923269 -9.921246 " transform="matrix(0.991144, 0, 0, -0.991144, 67.436954, 16.104113)"/>
<g fill="rgb(86.274719%, 86.66687%, 87.057495%)" fill-opacity="1">
<use xlink:href="#glyph-1-0" x="64.398106" y="19.343173"/>
</g>
<path fill-rule="nonzero" fill="rgb(22.744751%, 23.922729%, 26.667786%)" fill-opacity="1" stroke-width="0.69739" stroke-linecap="butt" stroke-linejoin="miter" stroke="rgb(86.274719%, 86.66687%, 87.057495%)" stroke-opacity="1" stroke-miterlimit="10" d="M 12.754117 -9.921246 L 32.597815 -9.921246 L 32.597815 9.922452 L 12.754117 9.922452 Z M 12.754117 -9.921246 " transform="matrix(0.991144, 0, 0, -0.991144, 67.436954, 16.104113)"/>
<g fill="rgb(86.274719%, 86.66687%, 87.057495%)" fill-opacity="1">
<use xlink:href="#glyph-1-1" x="86.865365" y="19.343173"/>
</g>
<path fill-rule="nonzero" fill="rgb(22.744751%, 23.922729%, 26.667786%)" fill-opacity="1" stroke-width="0.69739" stroke-linecap="butt" stroke-linejoin="miter" stroke="rgb(86.274719%, 86.66687%, 87.057495%)" stroke-opacity="1" stroke-miterlimit="10" d="M 35.435444 -9.921246 L 55.275201 -9.921246 L 55.275201 9.922452 L 35.435444 9.922452 Z M 35.435444 -9.921246 " transform="matrix(0.991144, 0, 0, -0.991144, 67.436954, 16.104113)"/>
<g fill="rgb(86.274719%, 86.66687%, 87.057495%)" fill-opacity="1">
<use xlink:href="#glyph-1-2" x="109.287032" y="19.339208"/>
</g>
<path fill-rule="nonzero" fill="rgb(22.744751%, 23.922729%, 26.667786%)" fill-opacity="1" stroke-width="0.69739" stroke-linecap="butt" stroke-linejoin="miter" stroke="rgb(86.274719%, 86.66687%, 87.057495%)" stroke-opacity="1" stroke-miterlimit="10" d="M 58.11283 -9.921246 L 77.952587 -9.921246 L 77.952587 9.922452 L 58.11283 9.922452 Z M 58.11283 -9.921246 " transform="matrix(0.991144, 0, 0, -0.991144, 67.436954, 16.104113)"/>
<g fill="rgb(86.274719%, 86.66687%, 87.057495%)" fill-opacity="1">
<use xlink:href="#glyph-1-3" x="131.445055" y="19.343173"/>
</g>
<path fill-rule="nonzero" fill="rgb(22.744751%, 23.922729%, 26.667786%)" fill-opacity="1" stroke-width="0.69739" stroke-linecap="butt" stroke-linejoin="miter" stroke="rgb(86.274719%, 86.66687%, 87.057495%)" stroke-opacity="1" stroke-miterlimit="10" d="M 80.790216 -9.921246 L 100.629973 -9.921246 L 100.629973 9.922452 L 80.790216 9.922452 Z M 80.790216 -9.921246 " transform="matrix(0.991144, 0, 0, -0.991144, 67.436954, 16.104113)"/>
<g fill="rgb(86.274719%, 86.66687%, 87.057495%)" fill-opacity="1">
<use xlink:href="#glyph-1-4" x="154.534753" y="19.343173"/>
</g>
<path fill-rule="nonzero" fill="rgb(22.744751%, 23.922729%, 26.667786%)" fill-opacity="1" stroke-width="0.69739" stroke-linecap="butt" stroke-linejoin="miter" stroke="rgb(86.274719%, 86.66687%, 87.057495%)" stroke-opacity="1" stroke-miterlimit="10" d="M 103.467602 -9.921246 L 123.307359 -9.921246 L 123.307359 9.922452 L 103.467602 9.922452 Z M 103.467602 -9.921246 " transform="matrix(0.991144, 0, 0, -0.991144, 67.436954, 16.104113)"/>
<g fill="rgb(86.274719%, 86.66687%, 87.057495%)" fill-opacity="1">
<use xlink:href="#glyph-1-5" x="177.262684" y="19.343173"/>
</g>
<path fill-rule="nonzero" fill="rgb(22.744751%, 23.922729%, 26.667786%)" fill-opacity="1" stroke-width="0.69739" stroke-linecap="butt" stroke-linejoin="miter" stroke="rgb(86.274719%, 86.66687%, 87.057495%)" stroke-opacity="1" stroke-miterlimit="10" d="M 126.144988 -9.921246 L 145.984745 -9.921246 L 145.984745 9.922452 L 126.144988 9.922452 Z M 126.144988 -9.921246 " transform="matrix(0.991144, 0, 0, -0.991144, 67.436954, 16.104113)"/>
<g fill="rgb(86.274719%, 86.66687%, 87.057495%)" fill-opacity="1">
<use xlink:href="#glyph-1-6" x="198.85179" y="19.339208"/>
</g>
<g fill="rgb(60.392761%, 60.392761%, 60.392761%)" fill-opacity="1">
<use xlink:href="#glyph-0-6" x="232.714236" y="16.532287"/>
<use xlink:href="#glyph-0-6" x="234.91159" y="16.532287"/>
<use xlink:href="#glyph-0-6" x="237.108944" y="16.532287"/>
</g>
<g fill="rgb(60.392761%, 60.392761%, 60.392761%)" fill-opacity="1">
<use xlink:href="#glyph-0-7" x="25.828715" y="80.838723"/>
<use xlink:href="#glyph-0-8" x="32.153279" y="80.838723"/>
<use xlink:href="#glyph-0-9" x="36.645448" y="80.838723"/>
<use xlink:href="#glyph-0-3" x="42.555286" y="80.838723"/>
</g>
<path fill-rule="nonzero" fill="rgb(31.536865%, 24.949646%, 22.689819%)" fill-opacity="1" stroke-width="0.99628" stroke-linecap="butt" stroke-linejoin="miter" stroke="rgb(96.076965%, 61.959839%, 41.96167%)" stroke-opacity="1" stroke-miterlimit="10" d="M -9.923269 -73.417139 L 9.920429 -73.417139 L 9.920429 -53.577382 L -9.923269 -53.577382 Z M -9.923269 -73.417139 " transform="matrix(0.991144, 0, 0, -0.991144, 67.436954, 16.104113)"/>
<g fill="rgb(86.274719%, 86.66687%, 87.057495%)" fill-opacity="1">
<use xlink:href="#glyph-1-3" x="64.015524" y="82.276873"/>
</g>
<path fill-rule="nonzero" fill="rgb(31.536865%, 24.949646%, 22.689819%)" fill-opacity="1" stroke-width="0.99628" stroke-linecap="butt" stroke-linejoin="miter" stroke="rgb(96.076965%, 61.959839%, 41.96167%)" stroke-opacity="1" stroke-miterlimit="10" d="M 12.754117 -73.417139 L 32.597815 -73.417139 L 32.597815 -53.577382 L 12.754117 -53.577382 Z M 12.754117 -73.417139 " transform="matrix(0.991144, 0, 0, -0.991144, 67.436954, 16.104113)"/>
<g fill="rgb(86.274719%, 86.66687%, 87.057495%)" fill-opacity="1">
<use xlink:href="#glyph-1-4" x="87.106213" y="82.276873"/>
</g>
<path fill-rule="nonzero" fill="rgb(31.536865%, 24.949646%, 22.689819%)" fill-opacity="1" stroke-width="0.99628" stroke-linecap="butt" stroke-linejoin="miter" stroke="rgb(96.076965%, 61.959839%, 41.96167%)" stroke-opacity="1" stroke-miterlimit="10" d="M 35.435444 -73.417139 L 55.275201 -73.417139 L 55.275201 -53.577382 L 35.435444 -53.577382 Z M 35.435444 -73.417139 " transform="matrix(0.991144, 0, 0, -0.991144, 67.436954, 16.104113)"/>
<g fill="rgb(86.274719%, 86.66687%, 87.057495%)" fill-opacity="1">
<use xlink:href="#glyph-1-5" x="109.834144" y="82.276873"/>
</g>
<path fill-rule="nonzero" fill="rgb(31.536865%, 24.949646%, 22.689819%)" fill-opacity="1" stroke-width="0.99628" stroke-linecap="butt" stroke-linejoin="miter" stroke="rgb(96.076965%, 61.959839%, 41.96167%)" stroke-opacity="1" stroke-miterlimit="10" d="M 58.11283 -73.417139 L 77.952587 -73.417139 L 77.952587 -53.577382 L 58.11283 -53.577382 Z M 58.11283 -73.417139 " transform="matrix(0.991144, 0, 0, -0.991144, 67.436954, 16.104113)"/>
<g fill="rgb(86.274719%, 86.66687%, 87.057495%)" fill-opacity="1">
<use xlink:href="#glyph-1-6" x="131.42325" y="82.272909"/>
</g>
<path fill-rule="nonzero" fill="rgb(31.536865%, 24.949646%, 22.689819%)" fill-opacity="1" stroke-width="0.99628" stroke-linecap="butt" stroke-linejoin="miter" stroke="rgb(96.076965%, 61.959839%, 41.96167%)" stroke-opacity="1" stroke-miterlimit="10" d="M 80.790216 -73.417139 L 100.629973 -73.417139 L 100.629973 -53.577382 L 80.790216 -53.577382 Z M 80.790216 -73.417139 " transform="matrix(0.991144, 0, 0, -0.991144, 67.436954, 16.104113)"/>
<g fill="rgb(86.274719%, 86.66687%, 87.057495%)" fill-opacity="1">
<use xlink:href="#glyph-1-7" x="154.001518" y="82.276873"/>
</g>
<path fill-rule="nonzero" fill="rgb(31.536865%, 24.949646%, 22.689819%)" fill-opacity="1" stroke-width="0.99628" stroke-linecap="butt" stroke-linejoin="miter" stroke="rgb(96.076965%, 61.959839%, 41.96167%)" stroke-opacity="1" stroke-miterlimit="10" d="M 103.467602 -73.417139 L 123.307359 -73.417139 L 123.307359 -53.577382 L 103.467602 -53.577382 Z M 103.467602 -73.417139 " transform="matrix(0.991144, 0, 0, -0.991144, 67.436954, 16.104113)"/>
<g fill="rgb(86.274719%, 86.66687%, 87.057495%)" fill-opacity="1">
<use xlink:href="#glyph-1-8" x="178.508552" y="82.276873"/>
</g>
<path fill-rule="nonzero" fill="rgb(31.536865%, 24.949646%, 22.689819%)" fill-opacity="1" stroke-width="0.99628" stroke-linecap="butt" stroke-linejoin="miter" stroke="rgb(96.076965%, 61.959839%, 41.96167%)" stroke-opacity="1" stroke-miterlimit="10" d="M 126.144988 -73.417139 L 145.984745 -73.417139 L 145.984745 -53.577382 L 126.144988 -53.577382 Z M 126.144988 -73.417139 " transform="matrix(0.991144, 0, 0, -0.991144, 67.436954, 16.104113)"/>
<g fill="rgb(86.274719%, 86.66687%, 87.057495%)" fill-opacity="1">
<use xlink:href="#glyph-1-9" x="200.984732" y="81.387817"/>
</g>
<g fill="rgb(60.392761%, 60.392761%, 60.392761%)" fill-opacity="1">
<use xlink:href="#glyph-0-6" x="232.714236" y="79.465988"/>
<use xlink:href="#glyph-0-6" x="234.91159" y="79.465988"/>
<use xlink:href="#glyph-0-6" x="237.108944" y="79.465988"/>
</g>
<path fill="none" stroke-width="0.99628" stroke-linecap="butt" stroke-linejoin="miter" stroke="rgb(41.96167%, 65.098572%, 96.076965%)" stroke-opacity="1" stroke-miterlimit="10" d="M 0.000550754 -17.858725 L 0.000550754 -41.954926 " transform="matrix(0.991144, 0, 0, -0.991144, 67.436954, 16.104113)"/>
<path fill-rule="nonzero" fill="rgb(41.96167%, 65.098572%, 96.076965%)" fill-opacity="1" stroke-width="0.99628" stroke-linecap="butt" stroke-linejoin="round" stroke="rgb(41.96167%, 65.098572%, 96.076965%)" stroke-opacity="1" stroke-miterlimit="10" d="M 5.981936 0.000550754 L 1.583611 1.707069 L 3.045778 0.000550754 L 1.583611 -1.709909 Z M 5.981936 0.000550754 " transform="matrix(0, 0.991144, 0.991144, 0, 67.436954, 54.914788)"/>
<path fill="none" stroke-width="0.99628" stroke-linecap="butt" stroke-linejoin="miter" stroke="rgb(41.96167%, 65.098572%, 96.076965%)" stroke-opacity="1" stroke-miterlimit="10" d="M 22.677937 -17.858725 L 22.677937 -41.954926 " transform="matrix(0.991144, 0, 0, -0.991144, 67.436954, 16.104113)"/>
<path fill-rule="nonzero" fill="rgb(41.96167%, 65.098572%, 96.076965%)" fill-opacity="1" stroke-width="0.99628" stroke-linecap="butt" stroke-linejoin="round" stroke="rgb(41.96167%, 65.098572%, 96.076965%)" stroke-opacity="1" stroke-miterlimit="10" d="M 5.981936 0.000496702 L 1.583611 1.707015 L 3.045778 0.000496702 L 1.583611 -1.709963 Z M 5.981936 0.000496702 " transform="matrix(0, 0.991144, 0.991144, 0, 89.91357, 54.914788)"/>
<path fill="none" stroke-width="0.99628" stroke-linecap="butt" stroke-linejoin="miter" stroke="rgb(41.96167%, 65.098572%, 96.076965%)" stroke-opacity="1" stroke-miterlimit="10" d="M 45.355323 -17.858725 L 45.355323 -41.954926 " transform="matrix(0.991144, 0, 0, -0.991144, 67.436954, 16.104113)"/>
<path fill-rule="nonzero" fill="rgb(41.96167%, 65.098572%, 96.076965%)" fill-opacity="1" stroke-width="0.99628" stroke-linecap="butt" stroke-linejoin="round" stroke="rgb(41.96167%, 65.098572%, 96.076965%)" stroke-opacity="1" stroke-miterlimit="10" d="M 5.981936 0.000432651 L 1.583611 1.706951 L 3.045778 0.000432651 L 1.583611 -1.710027 Z M 5.981936 0.000432651 " transform="matrix(0, 0.991144, 0.991144, 0, 112.390196, 54.914788)"/>
<path fill="none" stroke-width="0.99628" stroke-linecap="butt" stroke-linejoin="miter" stroke="rgb(41.96167%, 65.098572%, 96.076965%)" stroke-opacity="1" stroke-miterlimit="10" d="M 68.032709 -17.858725 L 68.032709 -41.954926 " transform="matrix(0.991144, 0, 0, -0.991144, 67.436954, 16.104113)"/>
<path fill-rule="nonzero" fill="rgb(41.96167%, 65.098572%, 96.076965%)" fill-opacity="1" stroke-width="0.99628" stroke-linecap="butt" stroke-linejoin="round" stroke="rgb(41.96167%, 65.098572%, 96.076965%)" stroke-opacity="1" stroke-miterlimit="10" d="M 5.981936 0.0003786 L 1.583611 1.706897 L 3.045778 0.0003786 L 1.583611 -1.710081 Z M 5.981936 0.0003786 " transform="matrix(0, 0.991144, 0.991144, 0, 134.866812, 54.914788)"/>
<path fill="none" stroke-width="0.99628" stroke-linecap="butt" stroke-linejoin="miter" stroke="rgb(41.96167%, 65.098572%, 96.076965%)" stroke-opacity="1" stroke-miterlimit="10" d="M 90.710095 -17.858725 L 90.710095 -41.954926 " transform="matrix(0.991144, 0, 0, -0.991144, 67.436954, 16.104113)"/>
<path fill-rule="nonzero" fill="rgb(41.96167%, 65.098572%, 96.076965%)" fill-opacity="1" stroke-width="0.99628" stroke-linecap="butt" stroke-linejoin="round" stroke="rgb(41.96167%, 65.098572%, 96.076965%)" stroke-opacity="1" stroke-miterlimit="10" d="M 5.981936 0.000314549 L 1.583611 1.706833 L 3.045778 0.000314549 L 1.583611 -1.710145 Z M 5.981936 0.000314549 " transform="matrix(0, 0.991144, 0.991144, 0, 157.343438, 54.914788)"/>
<path fill="none" stroke-width="0.99628" stroke-linecap="butt" stroke-linejoin="miter" stroke="rgb(41.96167%, 65.098572%, 96.076965%)" stroke-opacity="1" stroke-miterlimit="10" d="M 113.38748 -17.858725 L 113.38748 -41.954926 " transform="matrix(0.991144, 0, 0, -0.991144, 67.436954, 16.104113)"/>
<path fill-rule="nonzero" fill="rgb(41.96167%, 65.098572%, 96.076965%)" fill-opacity="1" stroke-width="0.99628" stroke-linecap="butt" stroke-linejoin="round" stroke="rgb(41.96167%, 65.098572%, 96.076965%)" stroke-opacity="1" stroke-miterlimit="10" d="M 5.981936 0.000260497 L 1.583611 1.71072 L 3.045778 0.000260497 L 1.583611 -1.710199 Z M 5.981936 0.000260497 " transform="matrix(0, 0.991144, 0.991144, 0, 179.820054, 54.914788)"/>
<path fill="none" stroke-width="0.99628" stroke-linecap="butt" stroke-linejoin="miter" stroke="rgb(41.96167%, 65.098572%, 96.076965%)" stroke-opacity="1" stroke-miterlimit="10" d="M 136.064866 -17.858725 L 136.064866 -41.954926 " transform="matrix(0.991144, 0, 0, -0.991144, 67.436954, 16.104113)"/>
<path fill-rule="nonzero" fill="rgb(41.96167%, 65.098572%, 96.076965%)" fill-opacity="1" stroke-width="0.99628" stroke-linecap="butt" stroke-linejoin="round" stroke="rgb(41.96167%, 65.098572%, 96.076965%)" stroke-opacity="1" stroke-miterlimit="10" d="M 5.981936 0.000196446 L 1.583611 1.710656 L 3.045778 0.000196446 L 1.583611 -1.710263 Z M 5.981936 0.000196446 " transform="matrix(0, 0.991144, 0.991144, 0, 202.29668, 54.914788)"/>
<g fill="rgb(60.392761%, 60.392761%, 60.392761%)" fill-opacity="1">
<use xlink:href="#glyph-0-2" x="264.370394" y="45.586692"/>
<use xlink:href="#glyph-0-10" x="268.545298" y="45.586692"/>
<use xlink:href="#glyph-0-11" x="272.781028" y="45.586692"/>
<use xlink:href="#glyph-0-12" x="279.008131" y="45.586692"/>
<use xlink:href="#glyph-0-10" x="283.787152" y="45.586692"/>
<use xlink:href="#glyph-0-13" x="288.022882" y="45.586692"/>
</g>
<g fill="rgb(60.392761%, 60.392761%, 60.392761%)" fill-opacity="1">
<use xlink:href="#glyph-0-14" x="294.372329" y="45.586692"/>
<use xlink:href="#glyph-0-15" x="298.635016" y="45.586692"/>
<use xlink:href="#glyph-0-2" x="302.725592" y="45.586692"/>
<use xlink:href="#glyph-0-16" x="306.900496" y="45.586692"/>
<use xlink:href="#glyph-0-10" x="310.974483" y="45.586692"/>
</g>
<g fill="rgb(60.392761%, 60.392761%, 60.392761%)" fill-opacity="1">
<use xlink:href="#glyph-0-17" x="317.408258" y="45.586692"/>
<use xlink:href="#glyph-0-12" x="321.208526" y="45.586692"/>
<use xlink:href="#glyph-0-16" x="325.987546" y="45.586692"/>
<use xlink:href="#glyph-0-8" x="330.061533" y="45.586692"/>
<use xlink:href="#glyph-0-18" x="334.553702" y="45.586692"/>
<use xlink:href="#glyph-0-10" x="338.185315" y="45.586692"/>
<use xlink:href="#glyph-0-19" x="342.421045" y="45.586692"/>
<use xlink:href="#glyph-0-1" x="346.673364" y="45.586692"/>
<use xlink:href="#glyph-0-17" x="350.699657" y="45.586692"/>
<use xlink:href="#glyph-0-13" x="354.499925" y="45.586692"/>
</g>
<g fill="rgb(60.392761%, 60.392761%, 60.392761%)" fill-opacity="1">
<use xlink:href="#glyph-0-20" x="264.370394" y="53.486113"/>
<use xlink:href="#glyph-0-10" x="268.88952" y="53.486113"/>
</g>
<g fill="rgb(60.392761%, 60.392761%, 60.392761%)" fill-opacity="1">
<use xlink:href="#glyph-0-21" x="275.316383" y="53.486113"/>
</g>
<g fill="rgb(60.392761%, 60.392761%, 60.392761%)" fill-opacity="1">
<use xlink:href="#glyph-0-22" x="281.911901" y="53.486113"/>
<use xlink:href="#glyph-0-0" x="286.431027" y="53.486113"/>
<use xlink:href="#glyph-0-23" x="290.659845" y="53.486113"/>
<use xlink:href="#glyph-0-8" x="294.335004" y="53.486113"/>
<use xlink:href="#glyph-0-24" x="298.827173" y="53.486113"/>
<use xlink:href="#glyph-0-8" x="303.532233" y="53.486113"/>
<use xlink:href="#glyph-0-8" x="308.024402" y="53.486113"/>
</g>
<g fill="rgb(60.392761%, 60.392761%, 60.392761%)" fill-opacity="1">
<use xlink:href="#glyph-0-16" x="314.714616" y="53.486113"/>
<use xlink:href="#glyph-0-22" x="318.788603" y="53.486113"/>
<use xlink:href="#glyph-0-19" x="323.307728" y="53.486113"/>
<use xlink:href="#glyph-0-3" x="327.560047" y="53.486113"/>
<use xlink:href="#glyph-0-25" x="331.947843" y="53.486113"/>
<use xlink:href="#glyph-0-12" x="336.200162" y="53.486113"/>
</g>
</svg>
