<?xml version="1.0" encoding="UTF-8"?>
<svg xmlns="http://www.w3.org/2000/svg" xmlns:xlink="http://www.w3.org/1999/xlink" width="248.738pt" height="109.18pt" viewBox="0 0 248.738 109.18">
<defs>
<g>
<g id="glyph-0-0">
<path d="M 2.84375 0 L 2.84375 -1.59375 L 1.6875 -1.59375 C 1.332031 -1.59375 1.039062 -1.695312 0.8125 -1.90625 C 0.601562 -2.101562 0.5 -2.410156 0.5 -2.828125 L 0.5 -3.78125 L 1.125 -3.78125 L 1.125 -2.890625 C 1.125 -2.617188 1.179688 -2.414062 1.296875 -2.28125 C 1.421875 -2.15625 1.597656 -2.09375 1.828125 -2.09375 L 2.84375 -2.09375 L 2.84375 -3.78125 L 3.46875 -3.78125 L 3.46875 0 Z M 2.84375 0 "/>
</g>
<g id="glyph-0-1">
<path d="M 3.875 -3.78125 L 3.875 0 L 3.25 0 L 3.25 -3.03125 L 1.421875 0 L 0.625 0 L 0.625 -3.78125 L 1.25 -3.78125 L 1.25 -0.75 L 3.0625 -3.78125 Z M 3.875 -3.78125 "/>
</g>
<g id="glyph-0-2">
<path d="M 3.375 -3.640625 L 3.375 -3.0625 C 3.195312 -3.15625 3.019531 -3.222656 2.84375 -3.265625 C 2.664062 -3.316406 2.488281 -3.34375 2.3125 -3.34375 C 1.90625 -3.34375 1.585938 -3.210938 1.359375 -2.953125 C 1.140625 -2.703125 1.03125 -2.347656 1.03125 -1.890625 C 1.03125 -1.429688 1.140625 -1.070312 1.359375 -0.8125 C 1.585938 -0.550781 1.90625 -0.421875 2.3125 -0.421875 C 2.488281 -0.421875 2.664062 -0.445312 2.84375 -0.5 C 3.019531 -0.550781 3.195312 -0.625 3.375 -0.71875 L 3.375 -0.140625 C 3.195312 -0.0664062 3.015625 -0.0078125 2.828125 0.03125 C 2.648438 0.0703125 2.457031 0.09375 2.25 0.09375 C 1.675781 0.09375 1.21875 -0.0820312 0.875 -0.4375 C 0.539062 -0.800781 0.375 -1.285156 0.375 -1.890625 C 0.375 -2.503906 0.546875 -2.988281 0.890625 -3.34375 C 1.234375 -3.695312 1.695312 -3.875 2.28125 -3.875 C 2.476562 -3.875 2.664062 -3.851562 2.84375 -3.8125 C 3.03125 -3.78125 3.207031 -3.722656 3.375 -3.640625 Z M 3.375 -3.640625 "/>
</g>
<g id="glyph-0-3">
<path d="M 0.25 0 L 0.25 -0.515625 C 0.664062 -0.578125 0.9375 -0.75 1.0625 -1.03125 C 1.21875 -1.4375 1.296875 -2.148438 1.296875 -3.171875 L 1.296875 -3.78125 L 3.84375 -3.78125 L 3.84375 0 L 3.234375 0 L 3.234375 -3.28125 L 1.90625 -3.28125 L 1.90625 -2.90625 C 1.90625 -1.9375 1.804688 -1.234375 1.609375 -0.796875 C 1.398438 -0.328125 0.945312 -0.0625 0.25 0 Z M 0.25 0 "/>
</g>
<g id="glyph-0-4">
<path d="M 2.125 -3.34375 C 1.789062 -3.34375 1.523438 -3.210938 1.328125 -2.953125 C 1.128906 -2.691406 1.03125 -2.335938 1.03125 -1.890625 C 1.03125 -1.429688 1.125 -1.070312 1.3125 -0.8125 C 1.507812 -0.550781 1.78125 -0.421875 2.125 -0.421875 C 2.445312 -0.421875 2.707031 -0.550781 2.90625 -0.8125 C 3.101562 -1.082031 3.203125 -1.441406 3.203125 -1.890625 C 3.203125 -2.335938 3.101562 -2.691406 2.90625 -2.953125 C 2.707031 -3.210938 2.445312 -3.34375 2.125 -3.34375 Z M 2.125 -3.875 C 2.664062 -3.875 3.085938 -3.695312 3.390625 -3.34375 C 3.703125 -3 3.859375 -2.515625 3.859375 -1.890625 C 3.859375 -1.265625 3.703125 -0.773438 3.390625 -0.421875 C 3.085938 -0.078125 2.664062 0.09375 2.125 0.09375 C 1.570312 0.09375 1.140625 -0.078125 0.828125 -0.421875 C 0.523438 -0.773438 0.375 -1.265625 0.375 -1.890625 C 0.375 -2.515625 0.523438 -3 0.828125 -3.34375 C 1.140625 -3.695312 1.570312 -3.875 2.125 -3.875 Z M 2.125 -3.875 "/>
</g>
<g id="glyph-0-5">
<path d="M 0.625 -3.78125 L 1.25 -3.78125 L 1.25 -2 L 3 -3.78125 L 3.765625 -3.78125 L 2.3125 -2.328125 L 3.953125 0 L 3.25 0 L 1.90625 -1.90625 L 1.25 -1.234375 L 1.25 0 L 0.625 0 Z M 0.625 -3.78125 "/>
</g>
<g id="glyph-0-6">
<path d="M 2.375 -1.90625 C 1.875 -1.90625 1.523438 -1.847656 1.328125 -1.734375 C 1.128906 -1.617188 1.03125 -1.421875 1.03125 -1.140625 C 1.03125 -0.921875 1.101562 -0.742188 1.25 -0.609375 C 1.394531 -0.484375 1.59375 -0.421875 1.84375 -0.421875 C 2.1875 -0.421875 2.460938 -0.539062 2.671875 -0.78125 C 2.878906 -1.03125 2.984375 -1.359375 2.984375 -1.765625 L 2.984375 -1.90625 Z M 3.609375 -2.15625 L 3.609375 0 L 2.984375 0 L 2.984375 -0.578125 C 2.847656 -0.347656 2.671875 -0.175781 2.453125 -0.0625 C 2.242188 0.0390625 1.988281 0.09375 1.6875 0.09375 C 1.300781 0.09375 0.992188 -0.0078125 0.765625 -0.21875 C 0.535156 -0.4375 0.421875 -0.734375 0.421875 -1.109375 C 0.421875 -1.523438 0.5625 -1.84375 0.84375 -2.0625 C 1.125 -2.28125 1.550781 -2.390625 2.125 -2.390625 L 2.984375 -2.390625 L 2.984375 -2.453125 C 2.984375 -2.734375 2.890625 -2.953125 2.703125 -3.109375 C 2.515625 -3.265625 2.253906 -3.34375 1.921875 -3.34375 C 1.703125 -3.34375 1.488281 -3.316406 1.28125 -3.265625 C 1.082031 -3.210938 0.882812 -3.132812 0.6875 -3.03125 L 0.6875 -3.609375 C 0.914062 -3.703125 1.132812 -3.769531 1.34375 -3.8125 C 1.5625 -3.851562 1.773438 -3.875 1.984375 -3.875 C 2.523438 -3.875 2.929688 -3.734375 3.203125 -3.453125 C 3.472656 -3.171875 3.609375 -2.738281 3.609375 -2.15625 Z M 3.609375 -2.15625 "/>
</g>
<g id="glyph-0-7">
<path d="M 2.8125 -3.78125 L 3.421875 -3.78125 L 3.421875 -2 L 5.078125 -3.78125 L 5.796875 -3.78125 L 4.4375 -2.328125 L 6 0 L 5.328125 0 L 4.0625 -1.90625 L 3.421875 -1.234375 L 3.421875 0 L 2.8125 0 L 2.8125 -1.234375 L 2.171875 -1.90625 L 0.90625 0 L 0.234375 0 L 1.796875 -2.328125 L 0.4375 -3.78125 L 1.15625 -3.78125 L 2.8125 -2 Z M 2.8125 -3.78125 "/>
</g>
<g id="glyph-0-8">
<path d="M 1.5 -0.5 L 3.296875 -0.5 L 3.296875 -3.28125 L 2 -3.28125 L 2 -2.8125 C 2 -1.882812 1.863281 -1.171875 1.59375 -0.671875 Z M 0.59375 -0.5 C 0.800781 -0.582031 0.945312 -0.722656 1.03125 -0.921875 C 1.257812 -1.390625 1.375 -2.101562 1.375 -3.0625 L 1.375 -3.78125 L 3.921875 -3.78125 L 3.921875 -0.5 L 4.421875 -0.5 L 4.421875 0.953125 L 3.921875 0.953125 L 3.921875 0 L 0.859375 0 L 0.859375 0.953125 L 0.359375 0.953125 L 0.359375 -0.5 Z M 0.59375 -0.5 "/>
</g>
<g id="glyph-0-9">
<path d="M 2.234375 0.34375 C 2.054688 0.800781 1.882812 1.097656 1.71875 1.234375 C 1.550781 1.367188 1.328125 1.4375 1.046875 1.4375 L 0.546875 1.4375 L 0.546875 0.921875 L 0.90625 0.921875 C 1.082031 0.921875 1.21875 0.878906 1.3125 0.796875 C 1.40625 0.710938 1.507812 0.519531 1.625 0.21875 L 1.734375 -0.0625 L 0.203125 -3.78125 L 0.859375 -3.78125 L 2.046875 -0.828125 L 3.234375 -3.78125 L 3.890625 -3.78125 Z M 2.234375 0.34375 "/>
</g>
<g id="glyph-0-10">
<path d="M 3.71875 -3.34375 C 3.375 -3.34375 3.101562 -3.210938 2.90625 -2.953125 C 2.71875 -2.691406 2.625 -2.335938 2.625 -1.890625 C 2.625 -1.429688 2.71875 -1.070312 2.90625 -0.8125 C 3.101562 -0.550781 3.375 -0.421875 3.71875 -0.421875 C 4.039062 -0.421875 4.300781 -0.550781 4.5 -0.8125 C 4.695312 -1.082031 4.796875 -1.441406 4.796875 -1.890625 C 4.796875 -2.335938 4.695312 -2.691406 4.5 -2.953125 C 4.300781 -3.210938 4.039062 -3.34375 3.71875 -3.34375 Z M 2 -2.28125 C 2.039062 -2.707031 2.203125 -3.078125 2.484375 -3.390625 C 2.765625 -3.710938 3.175781 -3.875 3.71875 -3.875 C 4.25 -3.875 4.671875 -3.695312 4.984375 -3.34375 C 5.296875 -3 5.453125 -2.515625 5.453125 -1.890625 C 5.453125 -1.265625 5.296875 -0.773438 4.984375 -0.421875 C 4.671875 -0.078125 4.25 0.09375 3.71875 0.09375 C 3.164062 0.09375 2.738281 -0.0703125 2.4375 -0.40625 C 2.144531 -0.75 1.992188 -1.203125 1.984375 -1.765625 L 1.28125 -1.765625 L 1.28125 0 L 0.65625 0 L 0.65625 -3.78125 L 1.28125 -3.78125 L 1.28125 -2.28125 Z M 2 -2.28125 "/>
</g>
<g id="glyph-0-11">
<path d="M 3.890625 0 L 0.625 0 L 0.625 -3.78125 L 1.25 -3.78125 L 1.25 -0.5 L 3.265625 -0.5 L 3.265625 -3.78125 L 3.890625 -3.78125 L 3.890625 -0.5 L 4.390625 -0.5 L 4.390625 0.953125 L 3.890625 0.953125 Z M 3.890625 0 "/>
</g>
<g id="glyph-0-12">
<path d="M 1.03125 -1.890625 C 1.03125 -1.359375 1.109375 -0.976562 1.265625 -0.75 C 1.429688 -0.53125 1.65625 -0.421875 1.9375 -0.421875 C 2.15625 -0.421875 2.390625 -0.609375 2.640625 -0.984375 L 2.640625 -2.78125 C 2.390625 -3.164062 2.15625 -3.359375 1.9375 -3.359375 C 1.65625 -3.359375 1.429688 -3.242188 1.265625 -3.015625 C 1.109375 -2.796875 1.03125 -2.421875 1.03125 -1.890625 Z M 2.640625 1.4375 L 2.640625 -0.484375 C 2.515625 -0.273438 2.378906 -0.125 2.234375 -0.03125 C 2.085938 0.0507812 1.921875 0.09375 1.734375 0.09375 C 1.359375 0.09375 1.035156 -0.078125 0.765625 -0.421875 C 0.503906 -0.773438 0.375 -1.257812 0.375 -1.875 C 0.375 -2.5 0.503906 -2.988281 0.765625 -3.34375 C 1.035156 -3.695312 1.359375 -3.875 1.734375 -3.875 C 1.921875 -3.875 2.085938 -3.832031 2.234375 -3.75 C 2.378906 -3.664062 2.515625 -3.515625 2.640625 -3.296875 L 2.640625 -5.046875 L 3.265625 -5.046875 L 3.265625 -3.296875 C 3.398438 -3.515625 3.539062 -3.664062 3.6875 -3.75 C 3.832031 -3.832031 4 -3.875 4.1875 -3.875 C 4.5625 -3.875 4.878906 -3.695312 5.140625 -3.34375 C 5.410156 -2.988281 5.546875 -2.5 5.546875 -1.875 C 5.546875 -1.257812 5.410156 -0.773438 5.140625 -0.421875 C 4.878906 -0.078125 4.5625 0.09375 4.1875 0.09375 C 4 0.09375 3.832031 0.0507812 3.6875 -0.03125 C 3.539062 -0.125 3.398438 -0.273438 3.265625 -0.484375 L 3.265625 1.4375 Z M 4.890625 -1.890625 C 4.890625 -2.421875 4.804688 -2.796875 4.640625 -3.015625 C 4.484375 -3.242188 4.265625 -3.359375 3.984375 -3.359375 C 3.765625 -3.359375 3.523438 -3.164062 3.265625 -2.78125 L 3.265625 -0.984375 C 3.523438 -0.609375 3.765625 -0.421875 3.984375 -0.421875 C 4.265625 -0.421875 4.484375 -0.53125 4.640625 -0.75 C 4.804688 -0.976562 4.890625 -1.359375 4.890625 -1.890625 Z M 4.890625 -1.890625 "/>
</g>
<g id="glyph-0-13">
<path d="M 1.25 -0.5625 L 1.25 1.4375 L 0.625 1.4375 L 0.625 -3.78125 L 1.25 -3.78125 L 1.25 -3.203125 C 1.382812 -3.429688 1.550781 -3.597656 1.75 -3.703125 C 1.945312 -3.816406 2.1875 -3.875 2.46875 -3.875 C 2.925781 -3.875 3.296875 -3.691406 3.578125 -3.328125 C 3.867188 -2.960938 4.015625 -2.484375 4.015625 -1.890625 C 4.015625 -1.296875 3.867188 -0.816406 3.578125 -0.453125 C 3.296875 -0.0859375 2.925781 0.09375 2.46875 0.09375 C 2.1875 0.09375 1.945312 0.0390625 1.75 -0.0625 C 1.550781 -0.175781 1.382812 -0.34375 1.25 -0.5625 Z M 3.375 -1.890625 C 3.375 -2.347656 3.28125 -2.707031 3.09375 -2.96875 C 2.90625 -3.226562 2.644531 -3.359375 2.3125 -3.359375 C 1.976562 -3.359375 1.71875 -3.226562 1.53125 -2.96875 C 1.34375 -2.707031 1.25 -2.347656 1.25 -1.890625 C 1.25 -1.429688 1.34375 -1.070312 1.53125 -0.8125 C 1.71875 -0.550781 1.976562 -0.421875 2.3125 -0.421875 C 2.644531 -0.421875 2.90625 -0.550781 3.09375 -0.8125 C 3.28125 -1.070312 3.375 -1.429688 3.375 -1.890625 Z M 3.375 -1.890625 "/>
</g>
<g id="glyph-0-14">
<path d="M 1.25 -1.75 L 1.25 -0.5 L 2.140625 -0.5 C 2.421875 -0.5 2.632812 -0.550781 2.78125 -0.65625 C 2.9375 -0.757812 3.015625 -0.914062 3.015625 -1.125 C 3.015625 -1.320312 2.9375 -1.472656 2.78125 -1.578125 C 2.632812 -1.691406 2.421875 -1.75 2.140625 -1.75 Z M 1.25 -3.28125 L 1.25 -2.234375 L 2.0625 -2.234375 C 2.300781 -2.234375 2.492188 -2.28125 2.640625 -2.375 C 2.785156 -2.46875 2.859375 -2.597656 2.859375 -2.765625 C 2.859375 -2.929688 2.785156 -3.054688 2.640625 -3.140625 C 2.492188 -3.234375 2.300781 -3.28125 2.0625 -3.28125 Z M 0.625 -3.78125 L 2.109375 -3.78125 C 2.554688 -3.78125 2.894531 -3.695312 3.125 -3.53125 C 3.363281 -3.375 3.484375 -3.144531 3.484375 -2.84375 C 3.484375 -2.613281 3.421875 -2.429688 3.296875 -2.296875 C 3.179688 -2.160156 3.003906 -2.078125 2.765625 -2.046875 C 3.054688 -1.984375 3.28125 -1.867188 3.4375 -1.703125 C 3.59375 -1.535156 3.671875 -1.320312 3.671875 -1.0625 C 3.671875 -0.71875 3.539062 -0.453125 3.28125 -0.265625 C 3.019531 -0.0859375 2.648438 0 2.171875 0 L 0.625 0 Z M 0.625 -3.78125 "/>
</g>
<g id="glyph-0-15">
<path d="M 0.203125 -3.78125 L 3.828125 -3.78125 L 3.828125 -3.28125 L 2.328125 -3.28125 L 2.328125 0 L 1.703125 0 L 1.703125 -3.28125 L 0.203125 -3.28125 Z M 0.203125 -3.78125 "/>
</g>
<g id="glyph-0-16">
<path d="M 3.890625 -2.046875 L 3.890625 -1.75 L 1.03125 -1.75 C 1.0625 -1.320312 1.191406 -0.992188 1.421875 -0.765625 C 1.648438 -0.535156 1.96875 -0.421875 2.375 -0.421875 C 2.613281 -0.421875 2.84375 -0.453125 3.0625 -0.515625 C 3.289062 -0.578125 3.519531 -0.664062 3.75 -0.78125 L 3.75 -0.1875 C 3.519531 -0.09375 3.285156 -0.0234375 3.046875 0.015625 C 2.816406 0.0664062 2.582031 0.09375 2.34375 0.09375 C 1.738281 0.09375 1.257812 -0.078125 0.90625 -0.421875 C 0.550781 -0.773438 0.375 -1.253906 0.375 -1.859375 C 0.375 -2.472656 0.539062 -2.960938 0.875 -3.328125 C 1.21875 -3.691406 1.671875 -3.875 2.234375 -3.875 C 2.742188 -3.875 3.144531 -3.707031 3.4375 -3.375 C 3.738281 -3.050781 3.890625 -2.609375 3.890625 -2.046875 Z M 3.265625 -2.234375 C 3.265625 -2.566406 3.171875 -2.832031 2.984375 -3.03125 C 2.796875 -3.238281 2.550781 -3.34375 2.25 -3.34375 C 1.894531 -3.34375 1.613281 -3.242188 1.40625 -3.046875 C 1.195312 -2.859375 1.078125 -2.585938 1.046875 -2.234375 Z M 3.265625 -2.234375 "/>
</g>
<g id="glyph-0-17">
<path d="M 0.625 -3.78125 L 1.53125 -3.78125 L 2.609375 -1.25 L 3.6875 -3.78125 L 4.59375 -3.78125 L 4.59375 0 L 3.96875 0 L 3.96875 -3.1875 L 2.921875 -0.734375 L 2.296875 -0.734375 L 1.25 -3.1875 L 1.25 0 L 0.625 0 Z M 0.625 -3.78125 "/>
</g>
<g id="glyph-0-18">
<path d="M 2.390625 -2.046875 C 2.671875 -1.984375 2.882812 -1.867188 3.03125 -1.703125 C 3.1875 -1.546875 3.265625 -1.347656 3.265625 -1.109375 C 3.265625 -0.710938 3.117188 -0.410156 2.828125 -0.203125 C 2.546875 -0.00390625 2.132812 0.09375 1.59375 0.09375 C 1.414062 0.09375 1.226562 0.078125 1.03125 0.046875 C 0.84375 0.015625 0.648438 -0.03125 0.453125 -0.09375 L 0.453125 -0.671875 C 0.609375 -0.585938 0.78125 -0.523438 0.96875 -0.484375 C 1.164062 -0.441406 1.367188 -0.421875 1.578125 -0.421875 C 1.921875 -0.421875 2.1875 -0.484375 2.375 -0.609375 C 2.5625 -0.734375 2.65625 -0.898438 2.65625 -1.109375 C 2.65625 -1.304688 2.570312 -1.460938 2.40625 -1.578125 C 2.238281 -1.703125 2 -1.765625 1.6875 -1.765625 L 1.1875 -1.765625 L 1.1875 -2.28125 L 1.71875 -2.28125 C 1.976562 -2.28125 2.179688 -2.328125 2.328125 -2.421875 C 2.484375 -2.523438 2.5625 -2.65625 2.5625 -2.8125 C 2.5625 -2.957031 2.484375 -3.082031 2.328125 -3.1875 C 2.171875 -3.289062 1.957031 -3.34375 1.6875 -3.34375 C 1.53125 -3.34375 1.359375 -3.328125 1.171875 -3.296875 C 0.992188 -3.265625 0.796875 -3.21875 0.578125 -3.15625 L 0.578125 -3.71875 C 0.796875 -3.769531 1 -3.804688 1.1875 -3.828125 C 1.382812 -3.859375 1.566406 -3.875 1.734375 -3.875 C 2.179688 -3.875 2.53125 -3.785156 2.78125 -3.609375 C 3.039062 -3.429688 3.171875 -3.1875 3.171875 -2.875 C 3.171875 -2.664062 3.101562 -2.488281 2.96875 -2.34375 C 2.832031 -2.195312 2.640625 -2.097656 2.390625 -2.046875 Z M 2.390625 -2.046875 "/>
</g>
<g id="glyph-0-19">
<path d="M 3.015625 -1.125 C 3.015625 -1.320312 2.9375 -1.472656 2.78125 -1.578125 C 2.632812 -1.691406 2.421875 -1.75 2.140625 -1.75 L 1.25 -1.75 L 1.25 -0.5 L 2.140625 -0.5 C 2.421875 -0.5 2.632812 -0.550781 2.78125 -0.65625 C 2.9375 -0.757812 3.015625 -0.914062 3.015625 -1.125 Z M 0.625 -3.78125 L 1.25 -3.78125 L 1.25 -2.234375 L 2.171875 -2.234375 C 2.648438 -2.234375 3.019531 -2.140625 3.28125 -1.953125 C 3.539062 -1.773438 3.671875 -1.5 3.671875 -1.125 C 3.671875 -0.738281 3.539062 -0.453125 3.28125 -0.265625 C 3.019531 -0.0859375 2.648438 0 2.171875 0 L 0.625 0 Z M 0.625 -3.78125 "/>
</g>
<g id="glyph-1-0">
<path d="M 2.59375 -2.875 C 2.96875 -2.875 3.257812 -3.007812 3.46875 -3.28125 C 3.6875 -3.550781 3.796875 -3.925781 3.796875 -4.40625 C 3.796875 -4.875 3.6875 -5.242188 3.46875 -5.515625 C 3.257812 -5.785156 2.96875 -5.921875 2.59375 -5.921875 C 2.207031 -5.921875 1.914062 -5.789062 1.71875 -5.53125 C 1.519531 -5.28125 1.421875 -4.90625 1.421875 -4.40625 C 1.421875 -3.894531 1.515625 -3.507812 1.703125 -3.25 C 1.898438 -3 2.195312 -2.875 2.59375 -2.875 Z M 1.03125 -0.140625 L 1.03125 -0.9375 C 1.207031 -0.832031 1.398438 -0.75 1.609375 -0.6875 C 1.816406 -0.632812 2.03125 -0.609375 2.25 -0.609375 C 2.8125 -0.609375 3.234375 -0.816406 3.515625 -1.234375 C 3.796875 -1.660156 3.9375 -2.28125 3.9375 -3.09375 C 3.800781 -2.800781 3.609375 -2.578125 3.359375 -2.421875 C 3.117188 -2.265625 2.835938 -2.1875 2.515625 -2.1875 C 1.890625 -2.1875 1.40625 -2.378906 1.0625 -2.765625 C 0.71875 -3.148438 0.546875 -3.695312 0.546875 -4.40625 C 0.546875 -5.101562 0.722656 -5.644531 1.078125 -6.03125 C 1.429688 -6.414062 1.929688 -6.609375 2.578125 -6.609375 C 3.328125 -6.609375 3.875 -6.335938 4.21875 -5.796875 C 4.570312 -5.253906 4.75 -4.398438 4.75 -3.234375 C 4.75 -2.140625 4.535156 -1.304688 4.109375 -0.734375 C 3.691406 -0.160156 3.082031 0.125 2.28125 0.125 C 2.070312 0.125 1.859375 0.0976562 1.640625 0.046875 C 1.429688 0.00390625 1.226562 -0.0546875 1.03125 -0.140625 Z M 1.03125 -0.140625 "/>
</g>
<g id="glyph-1-1">
<path d="M 1.171875 -0.734375 L 2.546875 -0.734375 L 2.546875 -5.703125 L 1.0625 -5.375 L 1.0625 -6.171875 L 2.53125 -6.5 L 3.40625 -6.5 L 3.40625 -0.734375 L 4.75 -0.734375 L 4.75 0 L 1.171875 0 Z M 1.171875 -0.734375 "/>
</g>
<g id="glyph-1-2">
<path d="M 2.671875 -3.078125 C 2.285156 -3.078125 1.984375 -2.96875 1.765625 -2.75 C 1.554688 -2.53125 1.453125 -2.222656 1.453125 -1.828125 C 1.453125 -1.421875 1.554688 -1.109375 1.765625 -0.890625 C 1.984375 -0.671875 2.285156 -0.5625 2.671875 -0.5625 C 3.066406 -0.5625 3.367188 -0.671875 3.578125 -0.890625 C 3.796875 -1.109375 3.90625 -1.421875 3.90625 -1.828125 C 3.90625 -2.222656 3.796875 -2.53125 3.578125 -2.75 C 3.367188 -2.96875 3.066406 -3.078125 2.671875 -3.078125 Z M 1.90625 -3.453125 C 1.539062 -3.546875 1.25 -3.722656 1.03125 -3.984375 C 0.820312 -4.242188 0.71875 -4.554688 0.71875 -4.921875 C 0.71875 -5.441406 0.894531 -5.851562 1.25 -6.15625 C 1.601562 -6.457031 2.078125 -6.609375 2.671875 -6.609375 C 3.285156 -6.609375 3.765625 -6.457031 4.109375 -6.15625 C 4.460938 -5.851562 4.640625 -5.441406 4.640625 -4.921875 C 4.640625 -4.554688 4.535156 -4.242188 4.328125 -3.984375 C 4.117188 -3.722656 3.828125 -3.546875 3.453125 -3.453125 C 3.878906 -3.359375 4.207031 -3.164062 4.4375 -2.875 C 4.675781 -2.582031 4.796875 -2.207031 4.796875 -1.75 C 4.796875 -1.15625 4.609375 -0.691406 4.234375 -0.359375 C 3.859375 -0.0351562 3.335938 0.125 2.671875 0.125 C 2.015625 0.125 1.5 -0.0351562 1.125 -0.359375 C 0.75 -0.691406 0.5625 -1.148438 0.5625 -1.734375 C 0.5625 -2.203125 0.675781 -2.582031 0.90625 -2.875 C 1.144531 -3.164062 1.476562 -3.359375 1.90625 -3.453125 Z M 1.59375 -4.84375 C 1.59375 -4.5 1.6875 -4.234375 1.875 -4.046875 C 2.0625 -3.867188 2.328125 -3.78125 2.671875 -3.78125 C 3.023438 -3.78125 3.296875 -3.867188 3.484375 -4.046875 C 3.671875 -4.234375 3.765625 -4.5 3.765625 -4.84375 C 3.765625 -5.195312 3.671875 -5.46875 3.484375 -5.65625 C 3.304688 -5.84375 3.035156 -5.9375 2.671875 -5.9375 C 2.328125 -5.9375 2.0625 -5.84375 1.875 -5.65625 C 1.6875 -5.46875 1.59375 -5.195312 1.59375 -4.84375 Z M 1.59375 -4.84375 "/>
</g>
<g id="glyph-2-0">
<path d="M 2.015625 -2.234375 C 2.304688 -2.234375 2.535156 -2.335938 2.703125 -2.546875 C 2.867188 -2.753906 2.953125 -3.046875 2.953125 -3.421875 C 2.953125 -3.785156 2.867188 -4.070312 2.703125 -4.28125 C 2.535156 -4.5 2.304688 -4.609375 2.015625 -4.609375 C 1.710938 -4.609375 1.484375 -4.503906 1.328125 -4.296875 C 1.179688 -4.097656 1.109375 -3.804688 1.109375 -3.421875 C 1.109375 -3.023438 1.179688 -2.726562 1.328125 -2.53125 C 1.484375 -2.332031 1.710938 -2.234375 2.015625 -2.234375 Z M 0.796875 -0.109375 L 0.796875 -0.734375 C 0.941406 -0.648438 1.09375 -0.582031 1.25 -0.53125 C 1.40625 -0.488281 1.570312 -0.46875 1.75 -0.46875 C 2.1875 -0.46875 2.515625 -0.628906 2.734375 -0.953125 C 2.953125 -1.285156 3.0625 -1.769531 3.0625 -2.40625 C 2.957031 -2.175781 2.804688 -2 2.609375 -1.875 C 2.421875 -1.757812 2.203125 -1.703125 1.953125 -1.703125 C 1.472656 -1.703125 1.097656 -1.851562 0.828125 -2.15625 C 0.554688 -2.457031 0.421875 -2.878906 0.421875 -3.421875 C 0.421875 -3.960938 0.554688 -4.382812 0.828125 -4.6875 C 1.109375 -4.988281 1.5 -5.140625 2 -5.140625 C 2.582031 -5.140625 3.007812 -4.925781 3.28125 -4.5 C 3.5625 -4.082031 3.703125 -3.421875 3.703125 -2.515625 C 3.703125 -1.671875 3.535156 -1.023438 3.203125 -0.578125 C 2.878906 -0.128906 2.40625 0.09375 1.78125 0.09375 C 1.613281 0.09375 1.445312 0.078125 1.28125 0.046875 C 1.113281 0.015625 0.953125 -0.0351562 0.796875 -0.109375 Z M 0.796875 -0.109375 "/>
</g>
<g id="glyph-2-1">
<path d="M 0.90625 -0.578125 L 1.96875 -0.578125 L 1.96875 -4.4375 L 0.828125 -4.171875 L 0.828125 -4.796875 L 1.96875 -5.046875 L 2.65625 -5.046875 L 2.65625 -0.578125 L 3.703125 -0.578125 L 3.703125 0 L 0.90625 0 Z M 0.90625 -0.578125 "/>
</g>
</g>
<clipPath id="clip-0">
<path clip-rule="nonzero" d="M 59 65 L 239 65 L 239 108.367188 L 59 108.367188 Z M 59 65 "/>
</clipPath>
</defs>
<g fill="rgb(43.136597%, 43.136597%, 43.136597%)" fill-opacity="1">
<use xlink:href="#glyph-0-0" x="44.158424" y="19.422129"/>
<use xlink:href="#glyph-0-1" x="48.247861" y="19.422129"/>
<use xlink:href="#glyph-0-2" x="52.74638" y="19.422129"/>
<use xlink:href="#glyph-0-3" x="56.55202" y="19.422129"/>
<use xlink:href="#glyph-0-4" x="60.976475" y="19.422129"/>
</g>
<g fill="rgb(43.136597%, 43.136597%, 43.136597%)" fill-opacity="1">
<use xlink:href="#glyph-0-5" x="10.025779" y="51.956777"/>
<use xlink:href="#glyph-0-6" x="14.206584" y="51.956777"/>
<use xlink:href="#glyph-0-7" x="18.448302" y="51.956777"/>
<use xlink:href="#glyph-0-8" x="24.684208" y="51.956777"/>
<use xlink:href="#glyph-0-9" x="29.469984" y="51.956777"/>
<use xlink:href="#glyph-0-10" x="33.566343" y="51.956777"/>
</g>
<g fill="rgb(43.136597%, 43.136597%, 43.136597%)" fill-opacity="1">
<use xlink:href="#glyph-0-11" x="41.587398" y="51.956777"/>
<use xlink:href="#glyph-0-1" x="46.29911" y="51.956777"/>
<use xlink:href="#glyph-0-12" x="50.797629" y="51.956777"/>
<use xlink:href="#glyph-0-13" x="56.715822" y="51.956777"/>
<use xlink:href="#glyph-0-9" x="61.109821" y="51.956777"/>
</g>
<g fill="rgb(43.136597%, 43.136597%, 43.136597%)" fill-opacity="1">
<use xlink:href="#glyph-0-14" x="19.50161" y="59.867364"/>
</g>
<g fill="rgb(43.136597%, 43.136597%, 43.136597%)" fill-opacity="1">
<use xlink:href="#glyph-0-5" x="25.775587" y="59.867364"/>
<use xlink:href="#glyph-0-14" x="29.956392" y="59.867364"/>
<use xlink:href="#glyph-0-6" x="34.036138" y="59.867364"/>
<use xlink:href="#glyph-0-8" x="38.277856" y="59.867364"/>
<use xlink:href="#glyph-0-13" x="43.063632" y="59.867364"/>
<use xlink:href="#glyph-0-6" x="47.457631" y="59.867364"/>
<use xlink:href="#glyph-0-15" x="51.699348" y="59.867364"/>
</g>
<g fill="rgb(43.136597%, 43.136597%, 43.136597%)" fill-opacity="1">
<use xlink:href="#glyph-0-2" x="26.241986" y="92.573722"/>
<use xlink:href="#glyph-0-5" x="30.047627" y="92.573722"/>
<use xlink:href="#glyph-0-3" x="34.228432" y="92.573722"/>
<use xlink:href="#glyph-0-16" x="38.652887" y="92.573722"/>
<use xlink:href="#glyph-0-1" x="42.911217" y="92.573722"/>
<use xlink:href="#glyph-0-14" x="47.409736" y="92.573722"/>
<use xlink:href="#glyph-0-6" x="51.489482" y="92.573722"/>
<use xlink:href="#glyph-0-16" x="55.7312" y="92.573722"/>
<use xlink:href="#glyph-0-17" x="59.98953" y="92.573722"/>
</g>
<path fill-rule="nonzero" fill="rgb(94.900513%, 94.900513%, 94.900513%)" fill-opacity="1" stroke-width="0.69739" stroke-linecap="butt" stroke-linejoin="miter" stroke="rgb(10.195923%, 10.195923%, 10.195923%)" stroke-opacity="1" stroke-miterlimit="10" d="M 15.014477 11.34051 L -15.01406 11.34051 C -16.116025 11.34051 -17.009403 10.447132 -17.009403 9.345167 L -17.009403 -9.344941 C -17.009403 -10.446905 -16.116025 -11.340284 -15.01406 -11.340284 L 15.014477 -11.340284 C 16.116441 -11.340284 17.00982 -10.446905 17.00982 -9.344941 L 17.00982 9.345167 C 17.00982 10.447132 16.116441 11.34051 15.014477 11.34051 Z M 15.014477 11.34051 " transform="matrix(0.992545, 0, 0, -0.992545, 85.734168, 17.533315)"/>
<g fill="rgb(10.195923%, 10.195923%, 10.195923%)" fill-opacity="1">
<use xlink:href="#glyph-1-0" x="83.055288" y="20.772984"/>
</g>
<path fill-rule="nonzero" fill="rgb(94.900513%, 94.900513%, 94.900513%)" fill-opacity="1" stroke-width="0.69739" stroke-linecap="butt" stroke-linejoin="miter" stroke="rgb(10.195923%, 10.195923%, 10.195923%)" stroke-opacity="1" stroke-miterlimit="10" d="M 57.53457 11.34051 L 27.506033 11.34051 C 26.404068 11.34051 25.51069 10.447132 25.51069 9.345167 L 25.51069 -9.344941 C 25.51069 -10.446905 26.404068 -11.340284 27.506033 -11.340284 L 57.53457 -11.340284 C 58.636534 -11.340284 59.529913 -10.446905 59.529913 -9.344941 L 59.529913 9.345167 C 59.529913 10.447132 58.636534 11.34051 57.53457 11.34051 Z M 57.53457 11.34051 " transform="matrix(0.992545, 0, 0, -0.992545, 85.734168, 17.533315)"/>
<g fill="rgb(10.195923%, 10.195923%, 10.195923%)" fill-opacity="1">
<use xlink:href="#glyph-1-1" x="125.258321" y="20.776954"/>
</g>
<path fill-rule="nonzero" fill="rgb(94.900513%, 94.900513%, 94.900513%)" fill-opacity="1" stroke-width="0.69739" stroke-linecap="butt" stroke-linejoin="miter" stroke="rgb(10.195923%, 10.195923%, 10.195923%)" stroke-opacity="1" stroke-miterlimit="10" d="M 100.054663 11.34051 L 70.026126 11.34051 C 68.924161 11.34051 68.030783 10.447132 68.030783 9.345167 L 68.030783 -9.344941 C 68.030783 -10.446905 68.924161 -11.340284 70.026126 -11.340284 L 100.054663 -11.340284 C 101.156627 -11.340284 102.050006 -10.446905 102.050006 -9.344941 L 102.050006 9.345167 C 102.050006 10.447132 101.156627 11.34051 100.054663 11.34051 Z M 100.054663 11.34051 " transform="matrix(0.992545, 0, 0, -0.992545, 85.734168, 17.533315)"/>
<g fill="rgb(10.195923%, 10.195923%, 10.195923%)" fill-opacity="1">
<use xlink:href="#glyph-1-1" x="167.460361" y="20.776954"/>
</g>
<path fill-rule="nonzero" fill="rgb(94.900513%, 94.900513%, 94.900513%)" fill-opacity="1" stroke-width="0.69739" stroke-linecap="butt" stroke-linejoin="miter" stroke="rgb(10.195923%, 10.195923%, 10.195923%)" stroke-opacity="1" stroke-miterlimit="10" d="M 142.574756 11.34051 L 112.546219 11.34051 C 111.444254 11.34051 110.550876 10.447132 110.550876 9.345167 L 110.550876 -9.344941 C 110.550876 -10.446905 111.444254 -11.340284 112.546219 -11.340284 L 142.574756 -11.340284 C 143.67672 -11.340284 144.570099 -10.446905 144.570099 -9.344941 L 144.570099 9.345167 C 144.570099 10.447132 143.67672 11.34051 142.574756 11.34051 Z M 142.574756 11.34051 " transform="matrix(0.992545, 0, 0, -0.992545, 85.734168, 17.533315)"/>
<g fill="rgb(10.195923%, 10.195923%, 10.195923%)" fill-opacity="1">
<use xlink:href="#glyph-1-0" x="209.663394" y="20.772984"/>
</g>
<path fill-rule="nonzero" fill="rgb(80.587769%, 87.574768%, 96.720886%)" fill-opacity="1" stroke-width="0.99628" stroke-linecap="butt" stroke-linejoin="miter" stroke="rgb(11.764526%, 43.528748%, 85.096741%)" stroke-opacity="1" stroke-miterlimit="10" d="M 15.014477 -25.512336 L -15.01406 -25.512336 C -16.116025 -25.512336 -17.009403 -26.405715 -17.009403 -27.503744 L -17.009403 -46.197787 C -17.009403 -47.295816 -16.116025 -48.189194 -15.01406 -48.189194 L 15.014477 -48.189194 C 16.116441 -48.189194 17.00982 -47.295816 17.00982 -46.197787 L 17.00982 -27.503744 C 17.00982 -26.405715 16.116441 -25.512336 15.014477 -25.512336 Z M 15.014477 -25.512336 " transform="matrix(0.992545, 0, 0, -0.992545, 85.734168, 17.533315)"/>
<g fill="rgb(10.195923%, 10.195923%, 10.195923%)" fill-opacity="1">
<use xlink:href="#glyph-1-2" x="80.376408" y="57.348284"/>
<use xlink:href="#glyph-1-1" x="85.734821" y="57.348284"/>
</g>
<path fill-rule="nonzero" fill="rgb(80.587769%, 87.574768%, 96.720886%)" fill-opacity="1" stroke-width="0.99628" stroke-linecap="butt" stroke-linejoin="miter" stroke="rgb(11.764526%, 43.528748%, 85.096741%)" stroke-opacity="1" stroke-miterlimit="10" d="M 57.53457 -25.512336 L 27.506033 -25.512336 C 26.404068 -25.512336 25.51069 -26.405715 25.51069 -27.503744 L 25.51069 -46.197787 C 25.51069 -47.295816 26.404068 -48.189194 27.506033 -48.189194 L 57.53457 -48.189194 C 58.636534 -48.189194 59.529913 -47.295816 59.529913 -46.197787 L 59.529913 -27.503744 C 59.529913 -26.405715 58.636534 -25.512336 57.53457 -25.512336 Z M 57.53457 -25.512336 " transform="matrix(0.992545, 0, 0, -0.992545, 85.734168, 17.533315)"/>
<g fill="rgb(10.195923%, 10.195923%, 10.195923%)" fill-opacity="1">
<use xlink:href="#glyph-1-1" x="125.258321" y="57.353247"/>
</g>
<path fill-rule="nonzero" fill="rgb(80.587769%, 87.574768%, 96.720886%)" fill-opacity="1" stroke-width="0.99628" stroke-linecap="butt" stroke-linejoin="miter" stroke="rgb(11.764526%, 43.528748%, 85.096741%)" stroke-opacity="1" stroke-miterlimit="10" d="M 100.054663 -25.512336 L 70.026126 -25.512336 C 68.924161 -25.512336 68.030783 -26.405715 68.030783 -27.503744 L 68.030783 -46.197787 C 68.030783 -47.295816 68.924161 -48.189194 70.026126 -48.189194 L 100.054663 -48.189194 C 101.156627 -48.189194 102.050006 -47.295816 102.050006 -46.197787 L 102.050006 -27.503744 C 102.050006 -26.405715 101.156627 -25.512336 100.054663 -25.512336 Z M 100.054663 -25.512336 " transform="matrix(0.992545, 0, 0, -0.992545, 85.734168, 17.533315)"/>
<g fill="rgb(10.195923%, 10.195923%, 10.195923%)" fill-opacity="1">
<use xlink:href="#glyph-1-1" x="167.460361" y="57.353247"/>
</g>
<path fill-rule="nonzero" fill="rgb(80.587769%, 87.574768%, 96.720886%)" fill-opacity="1" stroke-width="0.99628" stroke-linecap="butt" stroke-linejoin="miter" stroke="rgb(11.764526%, 43.528748%, 85.096741%)" stroke-opacity="1" stroke-miterlimit="10" d="M 142.574756 -25.512336 L 112.546219 -25.512336 C 111.444254 -25.512336 110.550876 -26.405715 110.550876 -27.503744 L 110.550876 -46.197787 C 110.550876 -47.295816 111.444254 -48.189194 112.546219 -48.189194 L 142.574756 -48.189194 C 143.67672 -48.189194 144.570099 -47.295816 144.570099 -46.197787 L 144.570099 -27.503744 C 144.570099 -26.405715 143.67672 -25.512336 142.574756 -25.512336 Z M 142.574756 -25.512336 " transform="matrix(0.992545, 0, 0, -0.992545, 85.734168, 17.533315)"/>
<g fill="rgb(10.195923%, 10.195923%, 10.195923%)" fill-opacity="1">
<use xlink:href="#glyph-1-2" x="206.984513" y="57.348284"/>
<use xlink:href="#glyph-1-1" x="212.342926" y="57.348284"/>
</g>
<path fill="none" stroke-width="0.69739" stroke-linecap="butt" stroke-linejoin="miter" stroke="rgb(10.195923%, 10.195923%, 10.195923%)" stroke-opacity="1" stroke-miterlimit="10" d="M 0.000208371 -11.686615 L 0.000208371 -20.943118 " transform="matrix(0.992545, 0, 0, -0.992545, 85.734168, 17.533315)"/>
<path fill-rule="nonzero" fill="rgb(10.195923%, 10.195923%, 10.195923%)" fill-opacity="1" stroke-width="0.69739" stroke-linecap="butt" stroke-linejoin="round" stroke="rgb(10.195923%, 10.195923%, 10.195923%)" stroke-opacity="1" stroke-miterlimit="10" d="M 6.399705 0.000208371 L 1.106339 2.046714 L 2.85374 0.000208371 L 1.106339 -2.046297 Z M 6.399705 0.000208371 " transform="matrix(0, 0.992545, 0.992545, 0, 85.734168, 35.663627)"/>
<path fill="none" stroke-width="0.69739" stroke-linecap="butt" stroke-linejoin="miter" stroke="rgb(10.195923%, 10.195923%, 10.195923%)" stroke-opacity="1" stroke-miterlimit="10" d="M 42.520301 -11.686615 L 42.520301 -20.943118 " transform="matrix(0.992545, 0, 0, -0.992545, 85.734168, 17.533315)"/>
<path fill-rule="nonzero" fill="rgb(10.195923%, 10.195923%, 10.195923%)" fill-opacity="1" stroke-width="0.69739" stroke-linecap="butt" stroke-linejoin="round" stroke="rgb(10.195923%, 10.195923%, 10.195923%)" stroke-opacity="1" stroke-miterlimit="10" d="M 6.399705 0.0000813372 L 1.106339 2.046587 L 2.85374 0.0000813372 L 1.106339 -2.046424 Z M 6.399705 0.0000813372 " transform="matrix(0, 0.992545, 0.992545, 0, 127.937419, 35.663627)"/>
<path fill="none" stroke-width="0.69739" stroke-linecap="butt" stroke-linejoin="miter" stroke="rgb(10.195923%, 10.195923%, 10.195923%)" stroke-opacity="1" stroke-miterlimit="10" d="M 85.040394 -11.686615 L 85.040394 -20.943118 " transform="matrix(0.992545, 0, 0, -0.992545, 85.734168, 17.533315)"/>
<path fill-rule="nonzero" fill="rgb(10.195923%, 10.195923%, 10.195923%)" fill-opacity="1" stroke-width="0.69739" stroke-linecap="butt" stroke-linejoin="round" stroke="rgb(10.195923%, 10.195923%, 10.195923%)" stroke-opacity="1" stroke-miterlimit="10" d="M 6.399705 -0.000045697 L 1.106339 2.04646 L 2.85374 -0.000045697 L 1.106339 -2.046551 Z M 6.399705 -0.000045697 " transform="matrix(0, 0.992545, 0.992545, 0, 170.14067, 35.663627)"/>
<path fill="none" stroke-width="0.69739" stroke-linecap="butt" stroke-linejoin="miter" stroke="rgb(10.195923%, 10.195923%, 10.195923%)" stroke-opacity="1" stroke-miterlimit="10" d="M 127.560487 -11.686615 L 127.560487 -20.943118 " transform="matrix(0.992545, 0, 0, -0.992545, 85.734168, 17.533315)"/>
<path fill-rule="nonzero" fill="rgb(10.195923%, 10.195923%, 10.195923%)" fill-opacity="1" stroke-width="0.69739" stroke-linecap="butt" stroke-linejoin="round" stroke="rgb(10.195923%, 10.195923%, 10.195923%)" stroke-opacity="1" stroke-miterlimit="10" d="M 6.399705 -0.000162731 L 1.106339 2.046343 L 2.85374 -0.000162731 L 1.106339 -2.046669 Z M 6.399705 -0.000162731 " transform="matrix(0, 0.992545, 0.992545, 0, 212.343912, 35.663627)"/>
<path fill-rule="nonzero" fill="rgb(94.735718%, 83.605957%, 79.03595%)" fill-opacity="1" d="M 223.027344 79.429688 L 75.050781 79.429688 C 73.957031 79.429688 73.074219 80.316406 73.074219 81.410156 L 73.074219 99.960938 C 73.074219 101.054688 73.957031 101.941406 75.050781 101.941406 L 223.027344 101.941406 C 224.121094 101.941406 225.003906 101.054688 225.003906 99.960938 L 225.003906 81.410156 C 225.003906 80.316406 224.121094 79.429688 223.027344 79.429688 Z M 223.027344 79.429688 "/>
<g clip-path="url(#clip-0)">
<path fill="none" stroke-width="0.99628" stroke-linecap="butt" stroke-linejoin="miter" stroke="rgb(76.075745%, 25.489807%, 4.705811%)" stroke-opacity="1" stroke-miterlimit="10" d="M 138.324321 -62.361247 L -10.763625 -62.361247 C -11.86559 -62.361247 -12.755032 -63.254625 -12.755032 -64.35659 L -12.755032 -83.046697 C -12.755032 -84.148662 -11.86559 -85.042041 -10.763625 -85.042041 L 138.324321 -85.042041 C 139.426285 -85.042041 140.315728 -84.148662 140.315728 -83.046697 L 140.315728 -64.35659 C 140.315728 -63.254625 139.426285 -62.361247 138.324321 -62.361247 Z M 138.324321 -62.361247 " transform="matrix(0.992545, 0, 0, -0.992545, 85.734168, 17.533315)"/>
</g>
<g fill="rgb(10.195923%, 10.195923%, 10.195923%)" fill-opacity="1">
<use xlink:href="#glyph-1-2" x="132.964444" y="93.924576"/>
<use xlink:href="#glyph-1-1" x="138.322856" y="93.924576"/>
<use xlink:href="#glyph-1-1" x="143.681269" y="93.924576"/>
<use xlink:href="#glyph-1-1" x="149.039682" y="93.924576"/>
<use xlink:href="#glyph-1-2" x="154.398095" y="93.924576"/>
<use xlink:href="#glyph-1-1" x="159.756508" y="93.924576"/>
</g>
<path fill="none" stroke-width="0.69739" stroke-linecap="butt" stroke-linejoin="miter" stroke="rgb(43.136597%, 43.136597%, 43.136597%)" stroke-opacity="1" stroke-dasharray="2.98883 1.99255" stroke-miterlimit="10" d="M 17.505704 -46.957355 L 39.777196 -59.826728 " transform="matrix(0.992545, 0, 0, -0.992545, 85.734168, 17.533315)"/>
<path fill-rule="nonzero" fill="rgb(43.136597%, 43.136597%, 43.136597%)" fill-opacity="1" stroke-width="0.69739" stroke-linecap="butt" stroke-linejoin="round" stroke="rgb(43.136597%, 43.136597%, 43.136597%)" stroke-opacity="1" stroke-miterlimit="10" d="M 6.399504 -0.00168258 L 1.107623 2.044992 L 2.853446 -0.000774548 L 1.107886 -2.045857 Z M 6.399504 -0.00168258 " transform="matrix(0.859356, 0.49659, 0.49659, -0.859356, 122.915447, 75.586247)"/>
<path fill="none" stroke-width="0.69739" stroke-linecap="butt" stroke-linejoin="miter" stroke="rgb(43.136597%, 43.136597%, 43.136597%)" stroke-opacity="1" stroke-dasharray="2.98883 1.99255" stroke-miterlimit="10" d="M 49.348547 -48.689014 L 54.921339 -58.339076 " transform="matrix(0.992545, 0, 0, -0.992545, 85.734168, 17.533315)"/>
<path fill-rule="nonzero" fill="rgb(43.136597%, 43.136597%, 43.136597%)" fill-opacity="1" stroke-width="0.69739" stroke-linecap="butt" stroke-linejoin="round" stroke="rgb(43.136597%, 43.136597%, 43.136597%)" stroke-opacity="1" stroke-miterlimit="10" d="M 6.397727 -0.00088322 L 1.108868 2.047047 L 2.85364 -0.000432179 L 1.109002 -2.047205 Z M 6.397727 -0.00088322 " transform="matrix(0.496094, 0.859644, 0.859644, -0.496094, 138.916729, 73.136516)"/>
<path fill="none" stroke-width="0.69739" stroke-linecap="butt" stroke-linejoin="miter" stroke="rgb(43.136597%, 43.136597%, 43.136597%)" stroke-opacity="1" stroke-dasharray="2.98883 1.99255" stroke-miterlimit="10" d="M 78.212149 -48.689014 L 72.639356 -58.339076 " transform="matrix(0.992545, 0, 0, -0.992545, 85.734168, 17.533315)"/>
<path fill-rule="nonzero" fill="rgb(43.136597%, 43.136597%, 43.136597%)" fill-opacity="1" stroke-width="0.69739" stroke-linecap="butt" stroke-linejoin="round" stroke="rgb(43.136597%, 43.136597%, 43.136597%)" stroke-opacity="1" stroke-miterlimit="10" d="M 6.397699 0.000931413 L 1.108974 2.047253 L 2.853612 0.000480372 L 1.10884 -2.046999 Z M 6.397699 0.000931413 " transform="matrix(-0.496094, 0.859644, 0.859644, 0.496094, 159.161341, 73.136516)"/>
<path fill="none" stroke-width="0.69739" stroke-linecap="butt" stroke-linejoin="miter" stroke="rgb(43.136597%, 43.136597%, 43.136597%)" stroke-opacity="1" stroke-dasharray="2.98883 1.99255" stroke-miterlimit="10" d="M 110.054992 -46.957355 L 87.783499 -59.826728 " transform="matrix(0.992545, 0, 0, -0.992545, 85.734168, 17.533315)"/>
<path fill-rule="nonzero" fill="rgb(43.136597%, 43.136597%, 43.136597%)" fill-opacity="1" stroke-width="0.69739" stroke-linecap="butt" stroke-linejoin="round" stroke="rgb(43.136597%, 43.136597%, 43.136597%)" stroke-opacity="1" stroke-miterlimit="10" d="M 6.399456 0.00171042 L 1.107838 2.045885 L 2.853398 0.000802388 L 1.107575 -2.044964 Z M 6.399456 0.00171042 " transform="matrix(-0.859356, 0.49659, 0.49659, 0.859356, 175.162623, 75.586247)"/>
<g fill="rgb(43.136597%, 43.136597%, 43.136597%)" fill-opacity="1">
<use xlink:href="#glyph-2-0" x="201.212862" y="20.053388"/>
<use xlink:href="#glyph-2-1" x="205.380515" y="20.053388"/>
<use xlink:href="#glyph-2-1" x="209.548169" y="20.053388"/>
<use xlink:href="#glyph-2-0" x="213.715823" y="20.053388"/>
</g>
<g fill="rgb(43.136597%, 43.136597%, 43.136597%)" fill-opacity="1">
<use xlink:href="#glyph-0-13" x="201.212862" y="91.904746"/>
<use xlink:href="#glyph-0-16" x="205.60686" y="91.904746"/>
<use xlink:href="#glyph-0-18" x="209.865191" y="91.904746"/>
<use xlink:href="#glyph-0-9" x="213.545545" y="91.904746"/>
<use xlink:href="#glyph-0-3" x="217.641904" y="91.904746"/>
<use xlink:href="#glyph-0-19" x="222.066359" y="91.904746"/>
<use xlink:href="#glyph-0-15" x="226.146105" y="91.904746"/>
<use xlink:href="#glyph-0-6" x="230.17809" y="91.904746"/>
<use xlink:href="#glyph-0-15" x="234.419808" y="91.904746"/>
</g>
</svg>
