<?xml version="1.0" encoding="UTF-8"?>
<svg xmlns="http://www.w3.org/2000/svg" xmlns:xlink="http://www.w3.org/1999/xlink" width="375.487pt" height="156.957pt" viewBox="0 0 375.487 156.957">
<defs>
<g>
<g id="glyph-0-0">
<path d="M 1.109375 -0.75 L 2.546875 -0.75 L 2.546875 -5.71875 L 0.984375 -5.40625 L 0.984375 -6.21875 L 2.546875 -6.53125 L 3.421875 -6.53125 L 3.421875 -0.75 L 4.875 -0.75 L 4.875 0 L 1.109375 0 Z M 1.109375 -0.75 "/>
</g>
<g id="glyph-0-1">
<path d="M 3.640625 -3.515625 C 4.054688 -3.429688 4.382812 -3.242188 4.625 -2.953125 C 4.863281 -2.671875 4.984375 -2.316406 4.984375 -1.890625 C 4.984375 -1.253906 4.757812 -0.757812 4.3125 -0.40625 C 3.875 -0.0507812 3.242188 0.125 2.421875 0.125 C 2.148438 0.125 1.867188 0.0976562 1.578125 0.046875 C 1.285156 -0.00390625 0.988281 -0.0859375 0.6875 -0.203125 L 0.6875 -1.046875 C 0.925781 -0.898438 1.191406 -0.789062 1.484375 -0.71875 C 1.773438 -0.644531 2.082031 -0.609375 2.40625 -0.609375 C 2.957031 -0.609375 3.375 -0.71875 3.65625 -0.9375 C 3.945312 -1.15625 4.09375 -1.472656 4.09375 -1.890625 C 4.09375 -2.273438 3.957031 -2.578125 3.6875 -2.796875 C 3.425781 -3.015625 3.054688 -3.125 2.578125 -3.125 L 1.8125 -3.125 L 1.8125 -3.84375 L 2.609375 -3.84375 C 3.035156 -3.84375 3.363281 -3.929688 3.59375 -4.109375 C 3.832031 -4.285156 3.953125 -4.535156 3.953125 -4.859375 C 3.953125 -5.191406 3.832031 -5.445312 3.59375 -5.625 C 3.351562 -5.8125 3.015625 -5.90625 2.578125 -5.90625 C 2.328125 -5.90625 2.0625 -5.878906 1.78125 -5.828125 C 1.507812 -5.773438 1.207031 -5.691406 0.875 -5.578125 L 0.875 -6.359375 C 1.207031 -6.453125 1.519531 -6.519531 1.8125 -6.5625 C 2.113281 -6.613281 2.394531 -6.640625 2.65625 -6.640625 C 3.320312 -6.640625 3.847656 -6.488281 4.234375 -6.1875 C 4.628906 -5.882812 4.828125 -5.472656 4.828125 -4.953125 C 4.828125 -4.585938 4.722656 -4.28125 4.515625 -4.03125 C 4.304688 -3.78125 4.015625 -3.609375 3.640625 -3.515625 Z M 3.640625 -3.515625 "/>
</g>
<g id="glyph-0-2">
<path d="M 1.71875 -0.75 L 4.796875 -0.75 L 4.796875 0 L 0.65625 0 L 0.65625 -0.75 C 0.988281 -1.09375 1.441406 -1.554688 2.015625 -2.140625 C 2.597656 -2.722656 2.960938 -3.097656 3.109375 -3.265625 C 3.398438 -3.585938 3.597656 -3.859375 3.703125 -4.078125 C 3.816406 -4.296875 3.875 -4.507812 3.875 -4.71875 C 3.875 -5.070312 3.75 -5.359375 3.5 -5.578125 C 3.257812 -5.796875 2.945312 -5.90625 2.5625 -5.90625 C 2.28125 -5.90625 1.984375 -5.851562 1.671875 -5.75 C 1.367188 -5.65625 1.046875 -5.507812 0.703125 -5.3125 L 0.703125 -6.21875 C 1.054688 -6.351562 1.382812 -6.457031 1.6875 -6.53125 C 2 -6.601562 2.285156 -6.640625 2.546875 -6.640625 C 3.222656 -6.640625 3.757812 -6.46875 4.15625 -6.125 C 4.5625 -5.789062 4.765625 -5.34375 4.765625 -4.78125 C 4.765625 -4.507812 4.710938 -4.253906 4.609375 -4.015625 C 4.515625 -3.773438 4.332031 -3.492188 4.0625 -3.171875 C 3.988281 -3.085938 3.753906 -2.84375 3.359375 -2.4375 C 2.972656 -2.03125 2.425781 -1.46875 1.71875 -0.75 Z M 1.71875 -0.75 "/>
</g>
<g id="glyph-0-3">
<path d="M 0.734375 -6.53125 L 4.9375 -6.53125 L 4.9375 -6.15625 L 2.5625 0 L 1.640625 0 L 3.875 -5.78125 L 0.734375 -5.78125 Z M 0.734375 -6.53125 "/>
</g>
<g id="glyph-0-4">
<path d="M 0.96875 -6.53125 L 4.4375 -6.53125 L 4.4375 -5.78125 L 1.78125 -5.78125 L 1.78125 -4.1875 C 1.90625 -4.226562 2.03125 -4.257812 2.15625 -4.28125 C 2.289062 -4.300781 2.421875 -4.3125 2.546875 -4.3125 C 3.273438 -4.3125 3.847656 -4.109375 4.265625 -3.703125 C 4.691406 -3.304688 4.90625 -2.769531 4.90625 -2.09375 C 4.90625 -1.394531 4.6875 -0.847656 4.25 -0.453125 C 3.820312 -0.0664062 3.207031 0.125 2.40625 0.125 C 2.132812 0.125 1.851562 0.0976562 1.5625 0.046875 C 1.28125 0.00390625 0.988281 -0.0625 0.6875 -0.15625 L 0.6875 -1.046875 C 0.945312 -0.898438 1.21875 -0.789062 1.5 -0.71875 C 1.78125 -0.644531 2.078125 -0.609375 2.390625 -0.609375 C 2.890625 -0.609375 3.285156 -0.738281 3.578125 -1 C 3.878906 -1.269531 4.03125 -1.632812 4.03125 -2.09375 C 4.03125 -2.550781 3.878906 -2.910156 3.578125 -3.171875 C 3.285156 -3.441406 2.890625 -3.578125 2.390625 -3.578125 C 2.148438 -3.578125 1.910156 -3.550781 1.671875 -3.5 C 1.441406 -3.445312 1.207031 -3.363281 0.96875 -3.25 Z M 0.96875 -6.53125 "/>
</g>
<g id="glyph-1-0">
<path d="M 0.203125 -3.8125 L 3.859375 -3.8125 L 3.859375 -3.3125 L 2.34375 -3.3125 L 2.34375 0 L 1.71875 0 L 1.71875 -3.3125 L 0.203125 -3.3125 Z M 0.203125 -3.8125 "/>
</g>
<g id="glyph-1-1">
<path d="M 2.140625 -3.375 C 1.796875 -3.375 1.523438 -3.242188 1.328125 -2.984375 C 1.140625 -2.722656 1.046875 -2.363281 1.046875 -1.90625 C 1.046875 -1.445312 1.140625 -1.085938 1.328125 -0.828125 C 1.523438 -0.566406 1.796875 -0.4375 2.140625 -0.4375 C 2.472656 -0.4375 2.734375 -0.566406 2.921875 -0.828125 C 3.117188 -1.085938 3.21875 -1.445312 3.21875 -1.90625 C 3.21875 -2.351562 3.117188 -2.707031 2.921875 -2.96875 C 2.734375 -3.238281 2.472656 -3.375 2.140625 -3.375 Z M 2.140625 -3.90625 C 2.679688 -3.90625 3.101562 -3.726562 3.40625 -3.375 C 3.71875 -3.019531 3.875 -2.53125 3.875 -1.90625 C 3.875 -1.28125 3.71875 -0.789062 3.40625 -0.4375 C 3.101562 -0.0820312 2.679688 0.09375 2.140625 0.09375 C 1.585938 0.09375 1.15625 -0.0820312 0.84375 -0.4375 C 0.539062 -0.789062 0.390625 -1.28125 0.390625 -1.90625 C 0.390625 -2.53125 0.539062 -3.019531 0.84375 -3.375 C 1.15625 -3.726562 1.585938 -3.90625 2.140625 -3.90625 Z M 2.140625 -3.90625 "/>
</g>
<g id="glyph-1-2">
<path d="M 2.828125 -3.8125 L 3.453125 -3.8125 L 3.453125 -2.015625 L 5.109375 -3.8125 L 5.84375 -3.8125 L 4.46875 -2.34375 L 6.046875 0 L 5.375 0 L 4.09375 -1.921875 L 3.453125 -1.234375 L 3.453125 0 L 2.828125 0 L 2.828125 -1.234375 L 2.1875 -1.921875 L 0.90625 0 L 0.234375 0 L 1.796875 -2.34375 L 0.4375 -3.8125 L 1.15625 -3.8125 L 2.828125 -2.015625 Z M 2.828125 -3.8125 "/>
</g>
<g id="glyph-1-3">
<path d="M 3.921875 -2.0625 L 3.921875 -1.75 L 1.03125 -1.75 C 1.0625 -1.320312 1.191406 -0.992188 1.421875 -0.765625 C 1.660156 -0.546875 1.988281 -0.4375 2.40625 -0.4375 C 2.644531 -0.4375 2.875 -0.460938 3.09375 -0.515625 C 3.320312 -0.578125 3.546875 -0.664062 3.765625 -0.78125 L 3.765625 -0.1875 C 3.546875 -0.09375 3.316406 -0.0234375 3.078125 0.015625 C 2.835938 0.0664062 2.597656 0.09375 2.359375 0.09375 C 1.753906 0.09375 1.273438 -0.0820312 0.921875 -0.4375 C 0.566406 -0.789062 0.390625 -1.269531 0.390625 -1.875 C 0.390625 -2.488281 0.554688 -2.976562 0.890625 -3.34375 C 1.222656 -3.71875 1.675781 -3.90625 2.25 -3.90625 C 2.757812 -3.90625 3.164062 -3.738281 3.46875 -3.40625 C 3.769531 -3.070312 3.921875 -2.625 3.921875 -2.0625 Z M 3.296875 -2.25 C 3.285156 -2.59375 3.1875 -2.863281 3 -3.0625 C 2.8125 -3.269531 2.566406 -3.375 2.265625 -3.375 C 1.910156 -3.375 1.628906 -3.273438 1.421875 -3.078125 C 1.210938 -2.878906 1.09375 -2.601562 1.0625 -2.25 Z M 3.296875 -2.25 "/>
</g>
<g id="glyph-1-4">
<path d="M 1.5 -0.5 L 3.328125 -0.5 L 3.328125 -3.3125 L 2 -3.3125 L 2 -2.828125 C 2 -1.898438 1.867188 -1.1875 1.609375 -0.6875 Z M 0.59375 -0.5 C 0.800781 -0.59375 0.953125 -0.734375 1.046875 -0.921875 C 1.265625 -1.398438 1.375 -2.125 1.375 -3.09375 L 1.375 -3.8125 L 3.953125 -3.8125 L 3.953125 -0.5 L 4.453125 -0.5 L 4.453125 0.96875 L 3.953125 0.96875 L 3.953125 0 L 0.859375 0 L 0.859375 0.96875 L 0.359375 0.96875 L 0.359375 -0.5 Z M 0.59375 -0.5 "/>
</g>
<g id="glyph-1-5">
<path d="M 1.265625 -0.578125 L 1.265625 1.453125 L 0.640625 1.453125 L 0.640625 -3.8125 L 1.265625 -3.8125 L 1.265625 -3.234375 C 1.390625 -3.460938 1.550781 -3.628906 1.75 -3.734375 C 1.957031 -3.847656 2.203125 -3.90625 2.484375 -3.90625 C 2.941406 -3.90625 3.316406 -3.71875 3.609375 -3.34375 C 3.898438 -2.976562 4.046875 -2.5 4.046875 -1.90625 C 4.046875 -1.300781 3.898438 -0.816406 3.609375 -0.453125 C 3.316406 -0.0859375 2.941406 0.09375 2.484375 0.09375 C 2.203125 0.09375 1.957031 0.0390625 1.75 -0.0625 C 1.550781 -0.175781 1.390625 -0.347656 1.265625 -0.578125 Z M 3.390625 -1.90625 C 3.390625 -2.363281 3.296875 -2.722656 3.109375 -2.984375 C 2.921875 -3.242188 2.660156 -3.375 2.328125 -3.375 C 1.992188 -3.375 1.734375 -3.242188 1.546875 -2.984375 C 1.359375 -2.722656 1.265625 -2.363281 1.265625 -1.90625 C 1.265625 -1.445312 1.359375 -1.082031 1.546875 -0.8125 C 1.734375 -0.550781 1.992188 -0.421875 2.328125 -0.421875 C 2.660156 -0.421875 2.921875 -0.550781 3.109375 -0.8125 C 3.296875 -1.082031 3.390625 -1.445312 3.390625 -1.90625 Z M 3.390625 -1.90625 "/>
</g>
<g id="glyph-1-6">
<path d="M 1.265625 -1.75 L 1.265625 -0.5 L 2.15625 -0.5 C 2.4375 -0.5 2.648438 -0.550781 2.796875 -0.65625 C 2.953125 -0.769531 3.03125 -0.925781 3.03125 -1.125 C 3.03125 -1.332031 2.953125 -1.488281 2.796875 -1.59375 C 2.648438 -1.695312 2.4375 -1.75 2.15625 -1.75 Z M 1.265625 -3.3125 L 1.265625 -2.25 L 2.078125 -2.25 C 2.316406 -2.25 2.507812 -2.296875 2.65625 -2.390625 C 2.8125 -2.484375 2.890625 -2.617188 2.890625 -2.796875 C 2.890625 -2.960938 2.8125 -3.085938 2.65625 -3.171875 C 2.507812 -3.265625 2.316406 -3.3125 2.078125 -3.3125 Z M 0.640625 -3.8125 L 2.125 -3.8125 C 2.570312 -3.8125 2.914062 -3.726562 3.15625 -3.5625 C 3.394531 -3.40625 3.515625 -3.175781 3.515625 -2.875 C 3.515625 -2.632812 3.453125 -2.445312 3.328125 -2.3125 C 3.203125 -2.175781 3.019531 -2.09375 2.78125 -2.0625 C 3.070312 -2 3.296875 -1.878906 3.453125 -1.703125 C 3.617188 -1.535156 3.703125 -1.320312 3.703125 -1.0625 C 3.703125 -0.726562 3.566406 -0.46875 3.296875 -0.28125 C 3.035156 -0.09375 2.664062 0 2.1875 0 L 0.640625 0 Z M 0.640625 -3.8125 "/>
</g>
<g id="glyph-1-7">
<path d="M 0.640625 -3.8125 L 1.546875 -3.8125 L 2.625 -1.265625 L 3.71875 -3.8125 L 4.625 -3.8125 L 4.625 0 L 4 0 L 4 -3.21875 L 2.9375 -0.734375 L 2.3125 -0.734375 L 1.265625 -3.21875 L 1.265625 0 L 0.640625 0 Z M 0.640625 -3.8125 "/>
</g>
<g id="glyph-1-8">
<path d="M 2.390625 -1.921875 C 1.878906 -1.921875 1.523438 -1.859375 1.328125 -1.734375 C 1.140625 -1.617188 1.046875 -1.425781 1.046875 -1.15625 C 1.046875 -0.925781 1.117188 -0.742188 1.265625 -0.609375 C 1.410156 -0.484375 1.609375 -0.421875 1.859375 -0.421875 C 2.203125 -0.421875 2.476562 -0.539062 2.6875 -0.78125 C 2.90625 -1.03125 3.015625 -1.363281 3.015625 -1.78125 L 3.015625 -1.921875 Z M 3.640625 -2.171875 L 3.640625 0 L 3.015625 0 L 3.015625 -0.578125 C 2.867188 -0.347656 2.6875 -0.175781 2.46875 -0.0625 C 2.257812 0.0390625 2 0.09375 1.6875 0.09375 C 1.300781 0.09375 0.992188 -0.015625 0.765625 -0.234375 C 0.535156 -0.453125 0.421875 -0.742188 0.421875 -1.109375 C 0.421875 -1.535156 0.5625 -1.859375 0.84375 -2.078125 C 1.132812 -2.296875 1.566406 -2.40625 2.140625 -2.40625 L 3.015625 -2.40625 L 3.015625 -2.46875 C 3.015625 -2.757812 2.914062 -2.984375 2.71875 -3.140625 C 2.53125 -3.296875 2.265625 -3.375 1.921875 -3.375 C 1.710938 -3.375 1.503906 -3.347656 1.296875 -3.296875 C 1.085938 -3.242188 0.890625 -3.164062 0.703125 -3.0625 L 0.703125 -3.640625 C 0.929688 -3.722656 1.148438 -3.785156 1.359375 -3.828125 C 1.578125 -3.878906 1.789062 -3.90625 2 -3.90625 C 2.550781 -3.90625 2.960938 -3.757812 3.234375 -3.46875 C 3.503906 -3.1875 3.640625 -2.753906 3.640625 -2.171875 Z M 3.640625 -2.171875 "/>
</g>
<g id="glyph-1-9">
<path d="M 3.40625 -3.671875 L 3.40625 -3.078125 C 3.226562 -3.171875 3.046875 -3.242188 2.859375 -3.296875 C 2.679688 -3.347656 2.503906 -3.375 2.328125 -3.375 C 1.921875 -3.375 1.601562 -3.242188 1.375 -2.984375 C 1.15625 -2.722656 1.046875 -2.363281 1.046875 -1.90625 C 1.046875 -1.4375 1.15625 -1.070312 1.375 -0.8125 C 1.601562 -0.5625 1.921875 -0.4375 2.328125 -0.4375 C 2.503906 -0.4375 2.679688 -0.457031 2.859375 -0.5 C 3.046875 -0.550781 3.226562 -0.625 3.40625 -0.71875 L 3.40625 -0.140625 C 3.226562 -0.0664062 3.046875 -0.0078125 2.859375 0.03125 C 2.671875 0.0703125 2.472656 0.09375 2.265625 0.09375 C 1.691406 0.09375 1.234375 -0.0820312 0.890625 -0.4375 C 0.554688 -0.800781 0.390625 -1.289062 0.390625 -1.90625 C 0.390625 -2.519531 0.554688 -3.003906 0.890625 -3.359375 C 1.234375 -3.722656 1.703125 -3.90625 2.296875 -3.90625 C 2.492188 -3.90625 2.679688 -3.882812 2.859375 -3.84375 C 3.046875 -3.800781 3.226562 -3.742188 3.40625 -3.671875 Z M 3.40625 -3.671875 "/>
</g>
<g id="glyph-1-10">
<path d="M 3.890625 -3.8125 L 3.890625 0 L 3.265625 0 L 3.265625 -3.0625 L 1.4375 0 L 0.640625 0 L 0.640625 -3.8125 L 1.25 -3.8125 L 1.25 -0.765625 L 3.09375 -3.8125 Z M 3.890625 -3.8125 "/>
</g>
<g id="glyph-1-11">
<path d="M 0.8125 -0.859375 L 1.53125 -0.859375 L 1.53125 0 L 0.8125 0 Z M 0.8125 -3.609375 L 1.53125 -3.609375 L 1.53125 -2.734375 L 0.8125 -2.734375 Z M 0.8125 -3.609375 "/>
</g>
<g id="glyph-1-12">
<path d="M 2.21875 -4.625 C 1.863281 -4.625 1.597656 -4.445312 1.421875 -4.09375 C 1.242188 -3.75 1.15625 -3.226562 1.15625 -2.53125 C 1.15625 -1.832031 1.242188 -1.3125 1.421875 -0.96875 C 1.597656 -0.625 1.863281 -0.453125 2.21875 -0.453125 C 2.570312 -0.453125 2.835938 -0.625 3.015625 -0.96875 C 3.191406 -1.3125 3.28125 -1.832031 3.28125 -2.53125 C 3.28125 -3.226562 3.191406 -3.75 3.015625 -4.09375 C 2.835938 -4.445312 2.570312 -4.625 2.21875 -4.625 Z M 2.21875 -5.171875 C 2.78125 -5.171875 3.210938 -4.945312 3.515625 -4.5 C 3.816406 -4.050781 3.96875 -3.394531 3.96875 -2.53125 C 3.96875 -1.675781 3.816406 -1.023438 3.515625 -0.578125 C 3.210938 -0.128906 2.78125 0.09375 2.21875 0.09375 C 1.644531 0.09375 1.207031 -0.128906 0.90625 -0.578125 C 0.601562 -1.023438 0.453125 -1.675781 0.453125 -2.53125 C 0.453125 -3.394531 0.601562 -4.050781 0.90625 -4.5 C 1.207031 -4.945312 1.644531 -5.171875 2.21875 -5.171875 Z M 2.21875 -5.171875 "/>
</g>
<g id="glyph-1-13">
<path d="M 0.859375 -0.578125 L 1.984375 -0.578125 L 1.984375 -4.453125 L 0.765625 -4.203125 L 0.765625 -4.828125 L 1.984375 -5.078125 L 2.671875 -5.078125 L 2.671875 -0.578125 L 3.796875 -0.578125 L 3.796875 0 L 0.859375 0 Z M 0.859375 -0.578125 "/>
</g>
<g id="glyph-1-14">
<path d="M 1.34375 -0.578125 L 3.734375 -0.578125 L 3.734375 0 L 0.515625 0 L 0.515625 -0.578125 C 0.773438 -0.847656 1.128906 -1.207031 1.578125 -1.65625 C 2.023438 -2.113281 2.304688 -2.410156 2.421875 -2.546875 C 2.640625 -2.796875 2.789062 -3.003906 2.875 -3.171875 C 2.96875 -3.347656 3.015625 -3.515625 3.015625 -3.671875 C 3.015625 -3.941406 2.921875 -4.160156 2.734375 -4.328125 C 2.546875 -4.503906 2.300781 -4.59375 2 -4.59375 C 1.78125 -4.59375 1.550781 -4.554688 1.3125 -4.484375 C 1.070312 -4.410156 0.816406 -4.296875 0.546875 -4.140625 L 0.546875 -4.828125 C 0.816406 -4.941406 1.070312 -5.023438 1.3125 -5.078125 C 1.5625 -5.140625 1.785156 -5.171875 1.984375 -5.171875 C 2.503906 -5.171875 2.921875 -5.035156 3.234375 -4.765625 C 3.546875 -4.503906 3.703125 -4.15625 3.703125 -3.71875 C 3.703125 -3.507812 3.660156 -3.3125 3.578125 -3.125 C 3.503906 -2.9375 3.367188 -2.71875 3.171875 -2.46875 C 3.109375 -2.40625 2.925781 -2.210938 2.625 -1.890625 C 2.320312 -1.578125 1.894531 -1.140625 1.34375 -0.578125 Z M 1.34375 -0.578125 "/>
</g>
<g id="glyph-1-15">
<path d="M 2.828125 -2.734375 C 3.160156 -2.671875 3.414062 -2.523438 3.59375 -2.296875 C 3.78125 -2.078125 3.875 -1.804688 3.875 -1.484375 C 3.875 -0.972656 3.703125 -0.582031 3.359375 -0.3125 C 3.015625 -0.0390625 2.523438 0.09375 1.890625 0.09375 C 1.671875 0.09375 1.445312 0.0703125 1.21875 0.03125 C 1 -0.0078125 0.769531 -0.0703125 0.53125 -0.15625 L 0.53125 -0.8125 C 0.71875 -0.707031 0.925781 -0.625 1.15625 -0.5625 C 1.382812 -0.507812 1.625 -0.484375 1.875 -0.484375 C 2.300781 -0.484375 2.625 -0.566406 2.84375 -0.734375 C 3.070312 -0.898438 3.1875 -1.148438 3.1875 -1.484375 C 3.1875 -1.773438 3.082031 -2.003906 2.875 -2.171875 C 2.664062 -2.347656 2.375 -2.4375 2 -2.4375 L 1.40625 -2.4375 L 1.40625 -3 L 2.03125 -3 C 2.363281 -3 2.617188 -3.066406 2.796875 -3.203125 C 2.984375 -3.335938 3.078125 -3.53125 3.078125 -3.78125 C 3.078125 -4.039062 2.984375 -4.238281 2.796875 -4.375 C 2.609375 -4.519531 2.34375 -4.59375 2 -4.59375 C 1.8125 -4.59375 1.609375 -4.570312 1.390625 -4.53125 C 1.179688 -4.488281 0.945312 -4.425781 0.6875 -4.34375 L 0.6875 -4.953125 C 0.945312 -5.023438 1.191406 -5.078125 1.421875 -5.109375 C 1.648438 -5.148438 1.863281 -5.171875 2.0625 -5.171875 C 2.582031 -5.171875 2.992188 -5.050781 3.296875 -4.8125 C 3.597656 -4.582031 3.75 -4.265625 3.75 -3.859375 C 3.75 -3.578125 3.664062 -3.335938 3.5 -3.140625 C 3.34375 -2.941406 3.117188 -2.804688 2.828125 -2.734375 Z M 2.828125 -2.734375 "/>
</g>
<g id="glyph-1-16">
<path d="M 2.640625 -4.484375 L 0.890625 -1.765625 L 2.640625 -1.765625 Z M 2.453125 -5.078125 L 3.3125 -5.078125 L 3.3125 -1.765625 L 4.046875 -1.765625 L 4.046875 -1.203125 L 3.3125 -1.203125 L 3.3125 0 L 2.640625 0 L 2.640625 -1.203125 L 0.34375 -1.203125 L 0.34375 -1.859375 Z M 2.453125 -5.078125 "/>
</g>
<g id="glyph-1-17">
<path d="M 3.921875 -3.8125 L 3.921875 0 L 3.296875 0 L 3.296875 -3.3125 L 1.265625 -3.3125 L 1.265625 0 L 0.640625 0 L 0.640625 -3.8125 Z M 3.921875 -3.8125 "/>
</g>
<g id="glyph-1-18">
<path d="M 0.640625 -3.8125 L 1.25 -3.8125 L 1.25 -2.015625 L 3.015625 -3.8125 L 3.796875 -3.8125 L 2.328125 -2.34375 L 3.984375 0 L 3.28125 0 L 1.921875 -1.921875 L 1.25 -1.234375 L 1.25 0 L 0.640625 0 Z M 0.640625 -3.8125 "/>
</g>
<g id="glyph-1-19">
<path d="M 2.25 0.359375 C 2.070312 0.804688 1.894531 1.097656 1.71875 1.234375 C 1.550781 1.378906 1.328125 1.453125 1.046875 1.453125 L 0.546875 1.453125 L 0.546875 0.921875 L 0.921875 0.921875 C 1.085938 0.921875 1.21875 0.878906 1.3125 0.796875 C 1.414062 0.722656 1.523438 0.53125 1.640625 0.21875 L 1.75 -0.0625 L 0.203125 -3.8125 L 0.875 -3.8125 L 2.0625 -0.828125 L 3.25 -3.8125 L 3.921875 -3.8125 Z M 2.25 0.359375 "/>
</g>
<g id="glyph-1-20">
<path d="M 2.40625 -2.0625 C 2.6875 -2 2.90625 -1.882812 3.0625 -1.71875 C 3.21875 -1.5625 3.296875 -1.359375 3.296875 -1.109375 C 3.296875 -0.710938 3.148438 -0.410156 2.859375 -0.203125 C 2.566406 -0.00390625 2.148438 0.09375 1.609375 0.09375 C 1.421875 0.09375 1.234375 0.078125 1.046875 0.046875 C 0.859375 0.015625 0.660156 -0.03125 0.453125 -0.09375 L 0.453125 -0.671875 C 0.609375 -0.585938 0.78125 -0.523438 0.96875 -0.484375 C 1.164062 -0.441406 1.375 -0.421875 1.59375 -0.421875 C 1.9375 -0.421875 2.203125 -0.484375 2.390625 -0.609375 C 2.578125 -0.734375 2.671875 -0.898438 2.671875 -1.109375 C 2.671875 -1.304688 2.585938 -1.460938 2.421875 -1.578125 C 2.253906 -1.703125 2.015625 -1.765625 1.703125 -1.765625 L 1.203125 -1.765625 L 1.203125 -2.296875 L 1.71875 -2.296875 C 1.988281 -2.296875 2.195312 -2.34375 2.34375 -2.4375 C 2.5 -2.539062 2.578125 -2.671875 2.578125 -2.828125 C 2.578125 -2.972656 2.5 -3.097656 2.34375 -3.203125 C 2.1875 -3.304688 1.972656 -3.359375 1.703125 -3.359375 C 1.535156 -3.359375 1.359375 -3.34375 1.171875 -3.3125 C 0.992188 -3.28125 0.796875 -3.234375 0.578125 -3.171875 L 0.578125 -3.75 C 0.804688 -3.800781 1.015625 -3.835938 1.203125 -3.859375 C 1.398438 -3.890625 1.582031 -3.90625 1.75 -3.90625 C 2.195312 -3.90625 2.546875 -3.816406 2.796875 -3.640625 C 3.054688 -3.460938 3.1875 -3.210938 3.1875 -2.890625 C 3.1875 -2.679688 3.117188 -2.503906 2.984375 -2.359375 C 2.847656 -2.210938 2.65625 -2.113281 2.40625 -2.0625 Z M 2.40625 -2.0625 "/>
</g>
<g id="glyph-1-21">
<path d="M 0.265625 0 L 0.265625 -0.515625 C 0.671875 -0.578125 0.9375 -0.753906 1.0625 -1.046875 C 1.21875 -1.441406 1.296875 -2.15625 1.296875 -3.1875 L 1.296875 -3.8125 L 3.875 -3.8125 L 3.875 0 L 3.25 0 L 3.25 -3.3125 L 1.921875 -3.3125 L 1.921875 -2.9375 C 1.921875 -1.957031 1.820312 -1.242188 1.625 -0.796875 C 1.414062 -0.328125 0.960938 -0.0625 0.265625 0 Z M 0.265625 0 "/>
</g>
<g id="glyph-2-0">
<path d="M 2.65625 -4.8125 C 2.65625 -4.78125 2.65625 -4.753906 2.65625 -4.734375 C 2.625 -4.628906 2.554688 -4.539062 2.453125 -4.46875 C 2.335938 -4.394531 2.21875 -4.359375 2.09375 -4.359375 C 1.96875 -4.359375 1.867188 -4.394531 1.796875 -4.46875 C 1.734375 -4.519531 1.703125 -4.582031 1.703125 -4.65625 C 1.703125 -4.6875 1.707031 -4.710938 1.71875 -4.734375 C 1.75 -4.847656 1.816406 -4.941406 1.921875 -5.015625 C 2.023438 -5.085938 2.140625 -5.125 2.265625 -5.125 C 2.390625 -5.125 2.492188 -5.085938 2.578125 -5.015625 C 2.628906 -4.953125 2.65625 -4.882812 2.65625 -4.8125 Z M 2.421875 -3.609375 L 1.65625 -0.359375 L 2.359375 -0.359375 L 2.28125 0 L 0.8125 0 L 1.578125 -3.25 L 0.84375 -3.25 L 0.9375 -3.609375 Z M 2.421875 -3.609375 "/>
</g>
<g id="glyph-2-1">
<path d="M 4.671875 0 L 0.703125 0 L 0.703125 -0.375 L 2.578125 -1.90625 C 2.960938 -2.226562 3.257812 -2.539062 3.46875 -2.84375 C 3.632812 -3.144531 3.71875 -3.445312 3.71875 -3.75 C 3.71875 -4.09375 3.609375 -4.359375 3.390625 -4.546875 C 3.179688 -4.742188 2.890625 -4.84375 2.515625 -4.84375 C 2.117188 -4.84375 1.8125 -4.757812 1.59375 -4.59375 C 1.382812 -4.4375 1.257812 -4.195312 1.21875 -3.875 L 0.75 -3.875 L 0.75 -4.78125 C 1.039062 -4.90625 1.335938 -5.003906 1.640625 -5.078125 C 1.953125 -5.140625 2.242188 -5.171875 2.515625 -5.171875 C 3.160156 -5.171875 3.664062 -5.039062 4.03125 -4.78125 C 4.40625 -4.519531 4.59375 -4.175781 4.59375 -3.75 C 4.59375 -3.25 4.171875 -2.648438 3.328125 -1.953125 C 3.242188 -1.890625 3.195312 -1.851562 3.1875 -1.84375 L 1.625 -0.5625 L 4.1875 -0.5625 L 4.1875 -1.1875 L 4.671875 -1.1875 Z M 4.671875 0 "/>
</g>
<g id="glyph-2-2">
<path d="M 4.9375 -1.640625 L 3.03125 -1.640625 L 3.03125 0.265625 L 2.46875 0.265625 L 2.46875 -1.640625 L 0.5625 -1.640625 L 0.5625 -2.1875 L 2.46875 -2.1875 L 2.46875 -4.109375 L 3.03125 -4.109375 L 3.03125 -2.1875 L 4.9375 -2.1875 Z M 4.9375 -1.640625 "/>
</g>
<g id="glyph-2-3">
<path d="M 4.3125 0 L 1.34375 0 L 1.34375 -0.359375 L 2.40625 -0.359375 L 2.40625 -4.578125 L 1.171875 -3.921875 L 1.171875 -4.375 L 2.671875 -5.171875 L 3.234375 -5.171875 L 3.234375 -0.359375 L 4.3125 -0.359375 Z M 4.3125 0 "/>
</g>
</g>
<clipPath id="clip-0">
<path clip-rule="nonzero" d="M 77 0.0859375 L 120 0.0859375 L 120 39 L 77 39 Z M 77 0.0859375 "/>
</clipPath>
</defs>
<path fill-rule="nonzero" fill="rgb(22.744751%, 23.922729%, 26.667786%)" fill-opacity="1" d="M 109.640625 17.726562 C 109.640625 11.472656 104.570312 6.402344 98.316406 6.402344 C 92.0625 6.402344 86.996094 11.472656 86.996094 17.726562 C 86.996094 23.980469 92.0625 29.046875 98.316406 29.046875 C 104.570312 29.046875 109.640625 23.980469 109.640625 17.726562 Z M 109.640625 17.726562 "/>
<g clip-path="url(#clip-0)">
<path fill="none" stroke-width="0.69739" stroke-linecap="butt" stroke-linejoin="miter" stroke="rgb(86.274719%, 86.66687%, 87.057495%)" stroke-opacity="1" stroke-miterlimit="10" d="M 11.338419 85.038938 C 11.338419 91.301389 6.261179 96.378629 -0.00127135 96.378629 C -6.263722 96.378629 -11.33705 91.301389 -11.33705 85.038938 C -11.33705 78.776488 -6.263722 73.70316 -0.00127135 73.70316 C 6.261179 73.70316 11.338419 78.776488 11.338419 85.038938 Z M 11.338419 85.038938 " transform="matrix(0.998636, 0, 0, -0.998636, 98.317676, 102.649477)"/>
</g>
<g fill="rgb(86.274719%, 86.66687%, 87.057495%)" fill-opacity="1">
<use xlink:href="#glyph-0-0" x="95.469567" y="20.990042"/>
</g>
<path fill-rule="nonzero" fill="rgb(22.744751%, 23.922729%, 26.667786%)" fill-opacity="1" stroke-width="0.69739" stroke-linecap="butt" stroke-linejoin="miter" stroke="rgb(86.274719%, 86.66687%, 87.057495%)" stroke-opacity="1" stroke-miterlimit="10" d="M -43.936215 42.51999 C -43.936215 48.78244 -49.013454 53.85968 -55.275905 53.85968 C -61.538355 53.85968 -66.615595 48.78244 -66.615595 42.51999 C -66.615595 36.257539 -61.538355 31.180299 -55.275905 31.180299 C -49.013454 31.180299 -43.936215 36.257539 -43.936215 42.51999 Z M -43.936215 42.51999 " transform="matrix(0.998636, 0, 0, -0.998636, 98.317676, 102.649477)"/>
<g fill="rgb(86.274719%, 86.66687%, 87.057495%)" fill-opacity="1">
<use xlink:href="#glyph-0-1" x="40.268983" y="63.447036"/>
</g>
<path fill-rule="nonzero" fill="rgb(22.744751%, 23.922729%, 26.667786%)" fill-opacity="1" stroke-width="0.69739" stroke-linecap="butt" stroke-linejoin="miter" stroke="rgb(86.274719%, 86.66687%, 87.057495%)" stroke-opacity="1" stroke-miterlimit="10" d="M 66.616964 42.51999 C 66.616964 48.78244 61.539724 53.85968 55.277274 53.85968 C 49.014823 53.85968 43.937583 48.78244 43.937583 42.51999 C 43.937583 36.257539 49.014823 31.180299 55.277274 31.180299 C 61.539724 31.180299 66.616964 36.257539 66.616964 42.51999 Z M 66.616964 42.51999 " transform="matrix(0.998636, 0, 0, -0.998636, 98.317676, 102.649477)"/>
<g fill="rgb(86.274719%, 86.66687%, 87.057495%)" fill-opacity="1">
<use xlink:href="#glyph-0-2" x="150.669152" y="63.510949"/>
</g>
<path fill-rule="nonzero" fill="rgb(22.744751%, 23.922729%, 26.667786%)" fill-opacity="1" stroke-width="0.69739" stroke-linecap="butt" stroke-linejoin="miter" stroke="rgb(86.274719%, 86.66687%, 87.057495%)" stroke-opacity="1" stroke-miterlimit="10" d="M -69.447584 0.00104091 C -69.447584 6.263491 -74.524823 11.33682 -80.787274 11.33682 C -87.049724 11.33682 -92.126964 6.263491 -92.126964 0.00104091 C -92.126964 -6.26141 -87.049724 -11.338649 -80.787274 -11.338649 C -74.524823 -11.338649 -69.447584 -6.26141 -69.447584 0.00104091 Z M -69.447584 0.00104091 " transform="matrix(0.998636, 0, 0, -0.998636, 98.317676, 102.649477)"/>
<g fill="rgb(86.274719%, 86.66687%, 87.057495%)" fill-opacity="1">
<use xlink:href="#glyph-0-3" x="14.791791" y="105.913018"/>
</g>
<path fill-rule="nonzero" fill="rgb(22.744751%, 23.922729%, 26.667786%)" fill-opacity="1" stroke-width="0.69739" stroke-linecap="butt" stroke-linejoin="miter" stroke="rgb(86.274719%, 86.66687%, 87.057495%)" stroke-opacity="1" stroke-miterlimit="10" d="M -18.424845 0.00104091 C -18.424845 6.263491 -23.502085 11.33682 -29.764535 11.33682 C -36.026986 11.33682 -41.104226 6.263491 -41.104226 0.00104091 C -41.104226 -6.26141 -36.026986 -11.338649 -29.764535 -11.338649 C -23.502085 -11.338649 -18.424845 -6.26141 -18.424845 0.00104091 Z M -18.424845 0.00104091 " transform="matrix(0.998636, 0, 0, -0.998636, 98.317676, 102.649477)"/>
<g fill="rgb(86.274719%, 86.66687%, 87.057495%)" fill-opacity="1">
<use xlink:href="#glyph-0-4" x="65.746176" y="105.850104"/>
</g>
<path fill="none" stroke-width="0.69739" stroke-linecap="butt" stroke-linejoin="miter" stroke="rgb(86.274719%, 86.66687%, 87.057495%)" stroke-opacity="1" stroke-miterlimit="10" d="M -9.263909 77.915939 L -46.013267 49.646901 " transform="matrix(0.998636, 0, 0, -0.998636, 98.317676, 102.649477)"/>
<path fill="none" stroke-width="0.69739" stroke-linecap="butt" stroke-linejoin="miter" stroke="rgb(86.274719%, 86.66687%, 87.057495%)" stroke-opacity="1" stroke-miterlimit="10" d="M 9.261366 77.915939 L 46.014636 49.646901 " transform="matrix(0.998636, 0, 0, -0.998636, 98.317676, 102.649477)"/>
<path fill="none" stroke-width="0.69739" stroke-linecap="butt" stroke-linejoin="miter" stroke="rgb(86.274719%, 86.66687%, 87.057495%)" stroke-opacity="1" stroke-miterlimit="10" d="M -61.288014 32.498504 L -74.775165 10.022526 " transform="matrix(0.998636, 0, 0, -0.998636, 98.317676, 102.649477)"/>
<path fill="none" stroke-width="0.69739" stroke-linecap="butt" stroke-linejoin="miter" stroke="rgb(86.274719%, 86.66687%, 87.057495%)" stroke-opacity="1" stroke-miterlimit="10" d="M -49.263796 32.498504 L -35.776644 10.022526 " transform="matrix(0.998636, 0, 0, -0.998636, 98.317676, 102.649477)"/>
<g fill="rgb(60.392761%, 60.392761%, 60.392761%)" fill-opacity="1">
<use xlink:href="#glyph-1-0" x="174.16605" y="40.182821"/>
<use xlink:href="#glyph-1-1" x="178.222775" y="40.182821"/>
</g>
<g fill="rgb(60.392761%, 60.392761%, 60.392761%)" fill-opacity="1">
<use xlink:href="#glyph-1-2" x="184.698214" y="40.182821"/>
<use xlink:href="#glyph-1-3" x="190.972383" y="40.182821"/>
</g>
<g fill="rgb(60.392761%, 60.392761%, 60.392761%)" fill-opacity="1">
<use xlink:href="#glyph-1-4" x="197.464537" y="40.182821"/>
<use xlink:href="#glyph-1-3" x="202.279678" y="40.182821"/>
<use xlink:href="#glyph-1-5" x="206.564137" y="40.182821"/>
<use xlink:href="#glyph-1-3" x="210.985097" y="40.182821"/>
<use xlink:href="#glyph-1-6" x="215.269556" y="40.182821"/>
<use xlink:href="#glyph-1-1" x="219.374335" y="40.182821"/>
</g>
<g fill="rgb(60.392761%, 60.392761%, 60.392761%)" fill-opacity="1">
<use xlink:href="#glyph-1-6" x="225.849774" y="40.182821"/>
</g>
<g fill="rgb(60.392761%, 60.392761%, 60.392761%)" fill-opacity="1">
<use xlink:href="#glyph-1-7" x="232.169212" y="40.182821"/>
<use xlink:href="#glyph-1-8" x="237.423106" y="40.182821"/>
<use xlink:href="#glyph-1-9" x="241.690851" y="40.182821"/>
<use xlink:href="#glyph-1-9" x="245.519842" y="40.182821"/>
<use xlink:href="#glyph-1-10" x="249.348833" y="40.182821"/>
<use xlink:href="#glyph-1-6" x="253.874955" y="40.182821"/>
<use xlink:href="#glyph-1-3" x="257.979734" y="40.182821"/>
<use xlink:href="#glyph-1-11" x="262.264193" y="40.182821"/>
</g>
<path fill-rule="nonzero" fill="rgb(22.744751%, 23.922729%, 26.667786%)" fill-opacity="1" stroke-width="0.69739" stroke-linecap="butt" stroke-linejoin="miter" stroke="rgb(86.274719%, 86.66687%, 87.057495%)" stroke-opacity="1" stroke-miterlimit="10" d="M 77.952742 18.424615 L 100.632123 18.424615 L 100.632123 41.103995 L 77.952742 41.103995 Z M 77.952742 18.424615 " transform="matrix(0.998636, 0, 0, -0.998636, 98.317676, 102.649477)"/>
<g fill="rgb(86.274719%, 86.66687%, 87.057495%)" fill-opacity="1">
<use xlink:href="#glyph-0-0" x="184.638742" y="76.190626"/>
</g>
<path fill-rule="nonzero" fill="rgb(22.744751%, 23.922729%, 26.667786%)" fill-opacity="1" stroke-width="0.69739" stroke-linecap="butt" stroke-linejoin="miter" stroke="rgb(86.274719%, 86.66687%, 87.057495%)" stroke-opacity="1" stroke-miterlimit="10" d="M 120.475603 18.424615 L 143.151071 18.424615 L 143.151071 41.103995 L 120.475603 41.103995 Z M 120.475603 18.424615 " transform="matrix(0.998636, 0, 0, -0.998636, 98.317676, 102.649477)"/>
<g fill="rgb(86.274719%, 86.66687%, 87.057495%)" fill-opacity="1">
<use xlink:href="#glyph-0-1" x="227.100729" y="76.185633"/>
</g>
<path fill-rule="nonzero" fill="rgb(22.744751%, 23.922729%, 26.667786%)" fill-opacity="1" stroke-width="0.69739" stroke-linecap="butt" stroke-linejoin="miter" stroke="rgb(86.274719%, 86.66687%, 87.057495%)" stroke-opacity="1" stroke-miterlimit="10" d="M 162.994551 18.424615 L 185.67002 18.424615 L 185.67002 41.103995 L 162.994551 41.103995 Z M 162.994551 18.424615 " transform="matrix(0.998636, 0, 0, -0.998636, 98.317676, 102.649477)"/>
<g fill="rgb(86.274719%, 86.66687%, 87.057495%)" fill-opacity="1">
<use xlink:href="#glyph-0-2" x="269.562716" y="76.249545"/>
</g>
<path fill-rule="nonzero" fill="rgb(22.744751%, 23.922729%, 26.667786%)" fill-opacity="1" stroke-width="0.69739" stroke-linecap="butt" stroke-linejoin="miter" stroke="rgb(86.274719%, 86.66687%, 87.057495%)" stroke-opacity="1" stroke-miterlimit="10" d="M 205.5135 18.424615 L 228.192881 18.424615 L 228.192881 41.103995 L 205.5135 41.103995 Z M 205.5135 18.424615 " transform="matrix(0.998636, 0, 0, -0.998636, 98.317676, 102.649477)"/>
<g fill="rgb(86.274719%, 86.66687%, 87.057495%)" fill-opacity="1">
<use xlink:href="#glyph-0-3" x="312.023705" y="76.190626"/>
</g>
<path fill-rule="nonzero" fill="rgb(22.744751%, 23.922729%, 26.667786%)" fill-opacity="1" stroke-width="0.69739" stroke-linecap="butt" stroke-linejoin="miter" stroke="rgb(86.274719%, 86.66687%, 87.057495%)" stroke-opacity="1" stroke-miterlimit="10" d="M 248.03636 18.424615 L 270.711829 18.424615 L 270.711829 41.103995 L 248.03636 41.103995 Z M 248.03636 18.424615 " transform="matrix(0.998636, 0, 0, -0.998636, 98.317676, 102.649477)"/>
<g fill="rgb(86.274719%, 86.66687%, 87.057495%)" fill-opacity="1">
<use xlink:href="#glyph-0-4" x="354.485693" y="76.126713"/>
</g>
<g fill="rgb(60.392761%, 60.392761%, 60.392761%)" fill-opacity="1">
<use xlink:href="#glyph-1-12" x="185.271877" y="98.815715"/>
</g>
<g fill="rgb(60.392761%, 60.392761%, 60.392761%)" fill-opacity="1">
<use xlink:href="#glyph-1-13" x="227.733864" y="98.818711"/>
</g>
<g fill="rgb(60.392761%, 60.392761%, 60.392761%)" fill-opacity="1">
<use xlink:href="#glyph-1-14" x="270.194853" y="98.864648"/>
</g>
<g fill="rgb(60.392761%, 60.392761%, 60.392761%)" fill-opacity="1">
<use xlink:href="#glyph-1-15" x="312.65684" y="98.815715"/>
</g>
<g fill="rgb(60.392761%, 60.392761%, 60.392761%)" fill-opacity="1">
<use xlink:href="#glyph-1-16" x="355.118828" y="98.818711"/>
</g>
<g fill="rgb(60.392761%, 60.392761%, 60.392761%)" fill-opacity="1">
<use xlink:href="#glyph-1-17" x="174.16605" y="139.312387"/>
<use xlink:href="#glyph-1-1" x="178.719332" y="139.312387"/>
<use xlink:href="#glyph-1-0" x="182.980112" y="139.312387"/>
<use xlink:href="#glyph-1-1" x="187.036838" y="139.312387"/>
<use xlink:href="#glyph-1-7" x="191.297618" y="139.312387"/>
<use xlink:href="#glyph-1-18" x="196.551512" y="139.312387"/>
<use xlink:href="#glyph-1-10" x="200.757971" y="139.312387"/>
</g>
<g fill="rgb(60.392761%, 60.392761%, 60.392761%)" fill-opacity="1">
<use xlink:href="#glyph-1-19" x="207.498751" y="139.312387"/>
<use xlink:href="#glyph-1-20" x="211.620244" y="139.312387"/>
<use xlink:href="#glyph-1-21" x="215.323181" y="139.312387"/>
<use xlink:href="#glyph-1-8" x="219.774784" y="139.312387"/>
</g>
<g fill="rgb(60.392761%, 60.392761%, 60.392761%)" fill-opacity="1">
<use xlink:href="#glyph-2-0" x="226.255883" y="139.312387"/>
</g>
<g fill="rgb(60.392761%, 60.392761%, 60.392761%)" fill-opacity="1">
<use xlink:href="#glyph-1-11" x="229.731135" y="139.312387"/>
</g>
<g fill="rgb(60.392761%, 60.392761%, 60.392761%)" fill-opacity="1">
<use xlink:href="#glyph-2-1" x="178.400265" y="147.271513"/>
<use xlink:href="#glyph-2-0" x="184.041376" y="147.271513"/>
<use xlink:href="#glyph-2-2" x="187.51658" y="147.271513"/>
<use xlink:href="#glyph-2-3" x="193.004476" y="147.271513"/>
</g>
<g fill="rgb(60.392761%, 60.392761%, 60.392761%)" fill-opacity="1">
<use xlink:href="#glyph-1-10" x="200.858582" y="147.271513"/>
</g>
<g fill="rgb(60.392761%, 60.392761%, 60.392761%)" fill-opacity="1">
<use xlink:href="#glyph-2-1" x="207.599372" y="147.271513"/>
<use xlink:href="#glyph-2-0" x="213.240484" y="147.271513"/>
<use xlink:href="#glyph-2-2" x="216.715687" y="147.271513"/>
<use xlink:href="#glyph-2-1" x="222.203583" y="147.271513"/>
</g>
</svg>
